ISO-10303-21;
HEADER;
/* Generated by software containing ST-Developer
 * from STEP Tools, Inc. (www.steptools.com) 
 */

FILE_DESCRIPTION(
/* description */ (''),
/* implementation_level */ '2;1');

FILE_NAME(
/* name */ 'calf_dyno_enclosure.step',
/* time_stamp */ '2026-10-08T16:53:12-07:00',
/* author */ (''),
/* organization */ (''),
/* preprocessor_version */ 'ST-DEVELOPER v20.2',
/* originating_system */ 'Autodesk Translation Framework v15.15.0.0',
/* authorisation */ '');

FILE_SCHEMA (('AUTOMOTIVE_DESIGN { 1 0 10303 214 3 1 1 }'));
ENDSEC;

DATA;
#10=MECHANICAL_DESIGN_GEOMETRIC_PRESENTATION_REPRESENTATION('',(#17),#1629);
#11=ITEM_DEFINED_TRANSFORMATION($,$,#1025,#1087);
#12=(
REPRESENTATION_RELATIONSHIP($,$,#1640,#1639)
REPRESENTATION_RELATIONSHIP_WITH_TRANSFORMATION(#11)
SHAPE_REPRESENTATION_RELATIONSHIP()
);
#13=CONTEXT_DEPENDENT_SHAPE_REPRESENTATION(#12,#1638);
#14=NEXT_ASSEMBLY_USAGE_OCCURRENCE('Base - print floor down:1',
'Base - print floor down:1','Base - print floor down:1',#1642,#1643,
'Base - print floor down:1');
#15=SHAPE_REPRESENTATION_RELATIONSHIP('SRR','None',#1640,#16);
#16=ADVANCED_BREP_SHAPE_REPRESENTATION('',(#18),#1628);
#17=STYLED_ITEM('',(#1653),#18);
#18=MANIFOLD_SOLID_BREP('Enclosure base',#1011);
#19=CIRCLE('',#1052,0.33);
#20=CIRCLE('',#1053,0.33);
#21=CIRCLE('',#1056,0.33);
#22=CIRCLE('',#1057,0.33);
#23=CIRCLE('',#1071,0.2);
#24=CIRCLE('',#1072,0.2);
#25=CIRCLE('',#1075,0.2);
#26=CIRCLE('',#1076,0.2);
#27=CIRCLE('',#1077,0.2);
#28=CIRCLE('',#1079,0.2);
#29=CIRCLE('',#1081,0.2);
#30=CIRCLE('',#1083,0.2);
#31=CYLINDRICAL_SURFACE('',#1051,0.33);
#32=CYLINDRICAL_SURFACE('',#1055,0.33);
#33=CYLINDRICAL_SURFACE('',#1070,0.2);
#34=CYLINDRICAL_SURFACE('',#1078,0.2);
#35=CYLINDRICAL_SURFACE('',#1080,0.2);
#36=CYLINDRICAL_SURFACE('',#1082,0.2);
#37=FACE_BOUND('',#105,.T.);
#38=FACE_BOUND('',#108,.T.);
#39=FACE_BOUND('',#137,.T.);
#40=FACE_BOUND('',#138,.T.);
#41=FACE_BOUND('',#140,.T.);
#42=FACE_BOUND('',#142,.T.);
#43=FACE_BOUND('',#143,.T.);
#44=FACE_BOUND('',#146,.T.);
#45=FACE_BOUND('',#149,.T.);
#46=FACE_BOUND('',#155,.T.);
#47=FACE_BOUND('',#156,.T.);
#48=FACE_BOUND('',#158,.T.);
#49=FACE_BOUND('',#159,.T.);
#50=FACE_OUTER_BOUND('',#99,.T.);
#51=FACE_OUTER_BOUND('',#100,.T.);
#52=FACE_OUTER_BOUND('',#101,.T.);
#53=FACE_OUTER_BOUND('',#102,.T.);
#54=FACE_OUTER_BOUND('',#103,.T.);
#55=FACE_OUTER_BOUND('',#104,.T.);
#56=FACE_OUTER_BOUND('',#106,.T.);
#57=FACE_OUTER_BOUND('',#107,.T.);
#58=FACE_OUTER_BOUND('',#109,.T.);
#59=FACE_OUTER_BOUND('',#110,.T.);
#60=FACE_OUTER_BOUND('',#111,.T.);
#61=FACE_OUTER_BOUND('',#112,.T.);
#62=FACE_OUTER_BOUND('',#113,.T.);
#63=FACE_OUTER_BOUND('',#114,.T.);
#64=FACE_OUTER_BOUND('',#115,.T.);
#65=FACE_OUTER_BOUND('',#116,.T.);
#66=FACE_OUTER_BOUND('',#117,.T.);
#67=FACE_OUTER_BOUND('',#118,.T.);
#68=FACE_OUTER_BOUND('',#119,.T.);
#69=FACE_OUTER_BOUND('',#120,.T.);
#70=FACE_OUTER_BOUND('',#121,.T.);
#71=FACE_OUTER_BOUND('',#122,.T.);
#72=FACE_OUTER_BOUND('',#123,.T.);
#73=FACE_OUTER_BOUND('',#124,.T.);
#74=FACE_OUTER_BOUND('',#125,.T.);
#75=FACE_OUTER_BOUND('',#126,.T.);
#76=FACE_OUTER_BOUND('',#127,.T.);
#77=FACE_OUTER_BOUND('',#128,.T.);
#78=FACE_OUTER_BOUND('',#129,.T.);
#79=FACE_OUTER_BOUND('',#130,.T.);
#80=FACE_OUTER_BOUND('',#131,.T.);
#81=FACE_OUTER_BOUND('',#132,.T.);
#82=FACE_OUTER_BOUND('',#133,.T.);
#83=FACE_OUTER_BOUND('',#134,.T.);
#84=FACE_OUTER_BOUND('',#135,.T.);
#85=FACE_OUTER_BOUND('',#136,.T.);
#86=FACE_OUTER_BOUND('',#139,.T.);
#87=FACE_OUTER_BOUND('',#141,.T.);
#88=FACE_OUTER_BOUND('',#144,.T.);
#89=FACE_OUTER_BOUND('',#145,.T.);
#90=FACE_OUTER_BOUND('',#147,.T.);
#91=FACE_OUTER_BOUND('',#148,.T.);
#92=FACE_OUTER_BOUND('',#150,.T.);
#93=FACE_OUTER_BOUND('',#151,.T.);
#94=FACE_OUTER_BOUND('',#152,.T.);
#95=FACE_OUTER_BOUND('',#153,.T.);
#96=FACE_OUTER_BOUND('',#154,.T.);
#97=FACE_OUTER_BOUND('',#157,.T.);
#98=FACE_OUTER_BOUND('',#160,.T.);
#99=EDGE_LOOP('',(#643,#644,#645,#646));
#100=EDGE_LOOP('',(#647,#648,#649,#650));
#101=EDGE_LOOP('',(#651,#652,#653,#654));
#102=EDGE_LOOP('',(#655,#656,#657,#658));
#103=EDGE_LOOP('',(#659,#660,#661,#662));
#104=EDGE_LOOP('',(#663,#664,#665,#666));
#105=EDGE_LOOP('',(#667,#668,#669,#670));
#106=EDGE_LOOP('',(#671,#672,#673,#674));
#107=EDGE_LOOP('',(#675,#676,#677,#678));
#108=EDGE_LOOP('',(#679,#680,#681,#682));
#109=EDGE_LOOP('',(#683,#684,#685,#686));
#110=EDGE_LOOP('',(#687,#688,#689,#690));
#111=EDGE_LOOP('',(#691,#692,#693,#694));
#112=EDGE_LOOP('',(#695,#696,#697,#698));
#113=EDGE_LOOP('',(#699,#700,#701,#702));
#114=EDGE_LOOP('',(#703,#704,#705,#706));
#115=EDGE_LOOP('',(#707,#708,#709,#710));
#116=EDGE_LOOP('',(#711,#712,#713,#714));
#117=EDGE_LOOP('',(#715,#716,#717,#718));
#118=EDGE_LOOP('',(#719,#720,#721,#722));
#119=EDGE_LOOP('',(#723,#724,#725,#726));
#120=EDGE_LOOP('',(#727,#728,#729,#730));
#121=EDGE_LOOP('',(#731,#732,#733,#734));
#122=EDGE_LOOP('',(#735,#736,#737,#738));
#123=EDGE_LOOP('',(#739,#740,#741,#742));
#124=EDGE_LOOP('',(#743,#744,#745,#746));
#125=EDGE_LOOP('',(#747,#748,#749,#750));
#126=EDGE_LOOP('',(#751,#752,#753,#754));
#127=EDGE_LOOP('',(#755,#756,#757,#758));
#128=EDGE_LOOP('',(#759,#760,#761,#762));
#129=EDGE_LOOP('',(#763,#764,#765,#766));
#130=EDGE_LOOP('',(#767,#768,#769,#770));
#131=EDGE_LOOP('',(#771,#772,#773,#774,#775,#776,#777,#778,#779,#780));
#132=EDGE_LOOP('',(#781,#782,#783,#784));
#133=EDGE_LOOP('',(#785,#786,#787,#788));
#134=EDGE_LOOP('',(#789,#790,#791,#792));
#135=EDGE_LOOP('',(#793,#794,#795,#796));
#136=EDGE_LOOP('',(#797,#798,#799,#800));
#137=EDGE_LOOP('',(#801,#802,#803,#804));
#138=EDGE_LOOP('',(#805,#806,#807,#808));
#139=EDGE_LOOP('',(#809,#810,#811,#812));
#140=EDGE_LOOP('',(#813,#814,#815,#816));
#141=EDGE_LOOP('',(#817,#818,#819,#820));
#142=EDGE_LOOP('',(#821,#822,#823,#824));
#143=EDGE_LOOP('',(#825,#826,#827,#828));
#144=EDGE_LOOP('',(#829,#830,#831,#832,#833,#834,#835,#836,#837,#838));
#145=EDGE_LOOP('',(#839,#840,#841,#842));
#146=EDGE_LOOP('',(#843,#844,#845,#846));
#147=EDGE_LOOP('',(#847,#848,#849,#850));
#148=EDGE_LOOP('',(#851,#852,#853,#854));
#149=EDGE_LOOP('',(#855,#856,#857,#858));
#150=EDGE_LOOP('',(#859,#860,#861,#862,#863,#864,#865,#866,#867,#868,#869,
#870,#871,#872,#873,#874));
#151=EDGE_LOOP('',(#875,#876,#877,#878));
#152=EDGE_LOOP('',(#879,#880,#881,#882));
#153=EDGE_LOOP('',(#883,#884,#885,#886));
#154=EDGE_LOOP('',(#887,#888,#889,#890));
#155=EDGE_LOOP('',(#891,#892,#893,#894));
#156=EDGE_LOOP('',(#895,#896,#897,#898));
#157=EDGE_LOOP('',(#899,#900,#901,#902));
#158=EDGE_LOOP('',(#903,#904,#905,#906));
#159=EDGE_LOOP('',(#907,#908,#909,#910));
#160=EDGE_LOOP('',(#911,#912,#913,#914,#915,#916,#917,#918));
#161=LINE('',#1347,#287);
#162=LINE('',#1349,#288);
#163=LINE('',#1351,#289);
#164=LINE('',#1352,#290);
#165=LINE('',#1355,#291);
#166=LINE('',#1357,#292);
#167=LINE('',#1358,#293);
#168=LINE('',#1361,#294);
#169=LINE('',#1363,#295);
#170=LINE('',#1364,#296);
#171=LINE('',#1366,#297);
#172=LINE('',#1367,#298);
#173=LINE('',#1371,#299);
#174=LINE('',#1373,#300);
#175=LINE('',#1375,#301);
#176=LINE('',#1376,#302);
#177=LINE('',#1379,#303);
#178=LINE('',#1381,#304);
#179=LINE('',#1382,#305);
#180=LINE('',#1385,#306);
#181=LINE('',#1387,#307);
#182=LINE('',#1388,#308);
#183=LINE('',#1390,#309);
#184=LINE('',#1391,#310);
#185=LINE('',#1396,#311);
#186=LINE('',#1398,#312);
#187=LINE('',#1400,#313);
#188=LINE('',#1401,#314);
#189=LINE('',#1404,#315);
#190=LINE('',#1406,#316);
#191=LINE('',#1407,#317);
#192=LINE('',#1410,#318);
#193=LINE('',#1412,#319);
#194=LINE('',#1413,#320);
#195=LINE('',#1415,#321);
#196=LINE('',#1416,#322);
#197=LINE('',#1420,#323);
#198=LINE('',#1422,#324);
#199=LINE('',#1424,#325);
#200=LINE('',#1425,#326);
#201=LINE('',#1428,#327);
#202=LINE('',#1430,#328);
#203=LINE('',#1431,#329);
#204=LINE('',#1434,#330);
#205=LINE('',#1436,#331);
#206=LINE('',#1437,#332);
#207=LINE('',#1439,#333);
#208=LINE('',#1440,#334);
#209=LINE('',#1444,#335);
#210=LINE('',#1446,#336);
#211=LINE('',#1448,#337);
#212=LINE('',#1449,#338);
#213=LINE('',#1452,#339);
#214=LINE('',#1454,#340);
#215=LINE('',#1455,#341);
#216=LINE('',#1458,#342);
#217=LINE('',#1460,#343);
#218=LINE('',#1461,#344);
#219=LINE('',#1463,#345);
#220=LINE('',#1464,#346);
#221=LINE('',#1468,#347);
#222=LINE('',#1470,#348);
#223=LINE('',#1472,#349);
#224=LINE('',#1473,#350);
#225=LINE('',#1476,#351);
#226=LINE('',#1478,#352);
#227=LINE('',#1479,#353);
#228=LINE('',#1482,#354);
#229=LINE('',#1484,#355);
#230=LINE('',#1485,#356);
#231=LINE('',#1487,#357);
#232=LINE('',#1488,#358);
#233=LINE('',#1494,#359);
#234=LINE('',#1497,#360);
#235=LINE('',#1500,#361);
#236=LINE('',#1502,#362);
#237=LINE('',#1503,#363);
#238=LINE('',#1509,#364);
#239=LINE('',#1512,#365);
#240=LINE('',#1515,#366);
#241=LINE('',#1517,#367);
#242=LINE('',#1518,#368);
#243=LINE('',#1520,#369);
#244=LINE('',#1521,#370);
#245=LINE('',#1524,#371);
#246=LINE('',#1526,#372);
#247=LINE('',#1528,#373);
#248=LINE('',#1530,#374);
#249=LINE('',#1531,#375);
#250=LINE('',#1535,#376);
#251=LINE('',#1537,#377);
#252=LINE('',#1539,#378);
#253=LINE('',#1540,#379);
#254=LINE('',#1543,#380);
#255=LINE('',#1545,#381);
#256=LINE('',#1546,#382);
#257=LINE('',#1549,#383);
#258=LINE('',#1551,#384);
#259=LINE('',#1552,#385);
#260=LINE('',#1554,#386);
#261=LINE('',#1555,#387);
#262=LINE('',#1559,#388);
#263=LINE('',#1561,#389);
#264=LINE('',#1563,#390);
#265=LINE('',#1564,#391);
#266=LINE('',#1567,#392);
#267=LINE('',#1569,#393);
#268=LINE('',#1570,#394);
#269=LINE('',#1573,#395);
#270=LINE('',#1575,#396);
#271=LINE('',#1576,#397);
#272=LINE('',#1578,#398);
#273=LINE('',#1579,#399);
#274=LINE('',#1580,#400);
#275=LINE('',#1587,#401);
#276=LINE('',#1590,#402);
#277=LINE('',#1593,#403);
#278=LINE('',#1595,#404);
#279=LINE('',#1596,#405);
#280=LINE('',#1601,#406);
#281=LINE('',#1604,#407);
#282=LINE('',#1608,#408);
#283=LINE('',#1613,#409);
#284=LINE('',#1616,#410);
#285=LINE('',#1619,#411);
#286=LINE('',#1621,#412);
#287=VECTOR('',#1094,1.);
#288=VECTOR('',#1095,1.);
#289=VECTOR('',#1096,1.);
#290=VECTOR('',#1097,1.);
#291=VECTOR('',#1100,1.);
#292=VECTOR('',#1101,1.);
#293=VECTOR('',#1102,1.);
#294=VECTOR('',#1105,1.);
#295=VECTOR('',#1106,1.);
#296=VECTOR('',#1107,1.);
#297=VECTOR('',#1110,1.);
#298=VECTOR('',#1111,1.);
#299=VECTOR('',#1114,1.);
#300=VECTOR('',#1115,1.);
#301=VECTOR('',#1116,1.);
#302=VECTOR('',#1117,1.);
#303=VECTOR('',#1120,1.);
#304=VECTOR('',#1121,1.);
#305=VECTOR('',#1122,1.);
#306=VECTOR('',#1125,1.);
#307=VECTOR('',#1126,1.);
#308=VECTOR('',#1127,1.);
#309=VECTOR('',#1130,1.);
#310=VECTOR('',#1131,1.);
#311=VECTOR('',#1136,1.);
#312=VECTOR('',#1137,1.);
#313=VECTOR('',#1138,1.);
#314=VECTOR('',#1139,1.);
#315=VECTOR('',#1142,1.);
#316=VECTOR('',#1143,1.);
#317=VECTOR('',#1144,1.);
#318=VECTOR('',#1147,1.);
#319=VECTOR('',#1148,1.);
#320=VECTOR('',#1149,1.);
#321=VECTOR('',#1152,1.);
#322=VECTOR('',#1153,1.);
#323=VECTOR('',#1156,1.);
#324=VECTOR('',#1157,1.);
#325=VECTOR('',#1158,1.);
#326=VECTOR('',#1159,1.);
#327=VECTOR('',#1162,1.);
#328=VECTOR('',#1163,1.);
#329=VECTOR('',#1164,1.);
#330=VECTOR('',#1167,1.);
#331=VECTOR('',#1168,1.);
#332=VECTOR('',#1169,1.);
#333=VECTOR('',#1172,1.);
#334=VECTOR('',#1173,1.);
#335=VECTOR('',#1176,1.);
#336=VECTOR('',#1177,1.);
#337=VECTOR('',#1178,1.);
#338=VECTOR('',#1179,1.);
#339=VECTOR('',#1182,1.);
#340=VECTOR('',#1183,1.);
#341=VECTOR('',#1184,1.);
#342=VECTOR('',#1187,1.);
#343=VECTOR('',#1188,1.);
#344=VECTOR('',#1189,1.);
#345=VECTOR('',#1192,1.);
#346=VECTOR('',#1193,1.);
#347=VECTOR('',#1196,1.);
#348=VECTOR('',#1197,1.);
#349=VECTOR('',#1198,1.);
#350=VECTOR('',#1199,1.);
#351=VECTOR('',#1202,1.);
#352=VECTOR('',#1203,1.);
#353=VECTOR('',#1204,1.);
#354=VECTOR('',#1207,1.);
#355=VECTOR('',#1208,1.);
#356=VECTOR('',#1209,1.);
#357=VECTOR('',#1212,1.);
#358=VECTOR('',#1213,1.);
#359=VECTOR('',#1218,1.);
#360=VECTOR('',#1221,1.);
#361=VECTOR('',#1224,1.);
#362=VECTOR('',#1225,1.);
#363=VECTOR('',#1226,1.);
#364=VECTOR('',#1231,1.);
#365=VECTOR('',#1234,1.);
#366=VECTOR('',#1237,1.);
#367=VECTOR('',#1238,1.);
#368=VECTOR('',#1239,1.);
#369=VECTOR('',#1242,1.);
#370=VECTOR('',#1243,1.);
#371=VECTOR('',#1246,1.);
#372=VECTOR('',#1247,1.);
#373=VECTOR('',#1248,1.);
#374=VECTOR('',#1249,1.);
#375=VECTOR('',#1250,1.);
#376=VECTOR('',#1253,1.);
#377=VECTOR('',#1254,1.);
#378=VECTOR('',#1255,1.);
#379=VECTOR('',#1256,1.);
#380=VECTOR('',#1259,1.);
#381=VECTOR('',#1260,1.);
#382=VECTOR('',#1261,1.);
#383=VECTOR('',#1264,1.);
#384=VECTOR('',#1265,1.);
#385=VECTOR('',#1266,1.);
#386=VECTOR('',#1269,1.);
#387=VECTOR('',#1270,1.);
#388=VECTOR('',#1273,1.);
#389=VECTOR('',#1274,1.);
#390=VECTOR('',#1275,1.);
#391=VECTOR('',#1276,1.);
#392=VECTOR('',#1279,1.);
#393=VECTOR('',#1280,1.);
#394=VECTOR('',#1281,1.);
#395=VECTOR('',#1284,1.);
#396=VECTOR('',#1285,1.);
#397=VECTOR('',#1286,1.);
#398=VECTOR('',#1289,1.);
#399=VECTOR('',#1290,1.);
#400=VECTOR('',#1291,1.);
#401=VECTOR('',#1298,1.);
#402=VECTOR('',#1301,1.);
#403=VECTOR('',#1304,1.);
#404=VECTOR('',#1305,1.);
#405=VECTOR('',#1306,1.);
#406=VECTOR('',#1311,1.);
#407=VECTOR('',#1314,1.);
#408=VECTOR('',#1319,1.);
#409=VECTOR('',#1326,1.);
#410=VECTOR('',#1329,1.);
#411=VECTOR('',#1334,1.);
#412=VECTOR('',#1337,1.);
#413=VERTEX_POINT('',#1345);
#414=VERTEX_POINT('',#1346);
#415=VERTEX_POINT('',#1348);
#416=VERTEX_POINT('',#1350);
#417=VERTEX_POINT('',#1354);
#418=VERTEX_POINT('',#1356);
#419=VERTEX_POINT('',#1360);
#420=VERTEX_POINT('',#1362);
#421=VERTEX_POINT('',#1369);
#422=VERTEX_POINT('',#1370);
#423=VERTEX_POINT('',#1372);
#424=VERTEX_POINT('',#1374);
#425=VERTEX_POINT('',#1378);
#426=VERTEX_POINT('',#1380);
#427=VERTEX_POINT('',#1384);
#428=VERTEX_POINT('',#1386);
#429=VERTEX_POINT('',#1394);
#430=VERTEX_POINT('',#1395);
#431=VERTEX_POINT('',#1397);
#432=VERTEX_POINT('',#1399);
#433=VERTEX_POINT('',#1403);
#434=VERTEX_POINT('',#1405);
#435=VERTEX_POINT('',#1409);
#436=VERTEX_POINT('',#1411);
#437=VERTEX_POINT('',#1418);
#438=VERTEX_POINT('',#1419);
#439=VERTEX_POINT('',#1421);
#440=VERTEX_POINT('',#1423);
#441=VERTEX_POINT('',#1427);
#442=VERTEX_POINT('',#1429);
#443=VERTEX_POINT('',#1433);
#444=VERTEX_POINT('',#1435);
#445=VERTEX_POINT('',#1442);
#446=VERTEX_POINT('',#1443);
#447=VERTEX_POINT('',#1445);
#448=VERTEX_POINT('',#1447);
#449=VERTEX_POINT('',#1451);
#450=VERTEX_POINT('',#1453);
#451=VERTEX_POINT('',#1457);
#452=VERTEX_POINT('',#1459);
#453=VERTEX_POINT('',#1466);
#454=VERTEX_POINT('',#1467);
#455=VERTEX_POINT('',#1469);
#456=VERTEX_POINT('',#1471);
#457=VERTEX_POINT('',#1475);
#458=VERTEX_POINT('',#1477);
#459=VERTEX_POINT('',#1481);
#460=VERTEX_POINT('',#1483);
#461=VERTEX_POINT('',#1490);
#462=VERTEX_POINT('',#1491);
#463=VERTEX_POINT('',#1493);
#464=VERTEX_POINT('',#1495);
#465=VERTEX_POINT('',#1499);
#466=VERTEX_POINT('',#1501);
#467=VERTEX_POINT('',#1505);
#468=VERTEX_POINT('',#1506);
#469=VERTEX_POINT('',#1508);
#470=VERTEX_POINT('',#1510);
#471=VERTEX_POINT('',#1514);
#472=VERTEX_POINT('',#1516);
#473=VERTEX_POINT('',#1523);
#474=VERTEX_POINT('',#1525);
#475=VERTEX_POINT('',#1527);
#476=VERTEX_POINT('',#1529);
#477=VERTEX_POINT('',#1533);
#478=VERTEX_POINT('',#1534);
#479=VERTEX_POINT('',#1536);
#480=VERTEX_POINT('',#1538);
#481=VERTEX_POINT('',#1542);
#482=VERTEX_POINT('',#1544);
#483=VERTEX_POINT('',#1548);
#484=VERTEX_POINT('',#1550);
#485=VERTEX_POINT('',#1557);
#486=VERTEX_POINT('',#1558);
#487=VERTEX_POINT('',#1560);
#488=VERTEX_POINT('',#1562);
#489=VERTEX_POINT('',#1566);
#490=VERTEX_POINT('',#1568);
#491=VERTEX_POINT('',#1572);
#492=VERTEX_POINT('',#1574);
#493=VERTEX_POINT('',#1583);
#494=VERTEX_POINT('',#1584);
#495=VERTEX_POINT('',#1586);
#496=VERTEX_POINT('',#1588);
#497=VERTEX_POINT('',#1592);
#498=VERTEX_POINT('',#1594);
#499=VERTEX_POINT('',#1598);
#500=VERTEX_POINT('',#1600);
#501=VERTEX_POINT('',#1603);
#502=VERTEX_POINT('',#1607);
#503=VERTEX_POINT('',#1611);
#504=VERTEX_POINT('',#1615);
#505=EDGE_CURVE('',#413,#414,#161,.T.);
#506=EDGE_CURVE('',#413,#415,#162,.T.);
#507=EDGE_CURVE('',#416,#415,#163,.T.);
#508=EDGE_CURVE('',#414,#416,#164,.T.);
#509=EDGE_CURVE('',#414,#417,#165,.T.);
#510=EDGE_CURVE('',#418,#416,#166,.T.);
#511=EDGE_CURVE('',#418,#417,#167,.T.);
#512=EDGE_CURVE('',#417,#419,#168,.T.);
#513=EDGE_CURVE('',#420,#418,#169,.T.);
#514=EDGE_CURVE('',#420,#419,#170,.T.);
#515=EDGE_CURVE('',#419,#413,#171,.T.);
#516=EDGE_CURVE('',#415,#420,#172,.T.);
#517=EDGE_CURVE('',#421,#422,#173,.T.);
#518=EDGE_CURVE('',#421,#423,#174,.T.);
#519=EDGE_CURVE('',#424,#423,#175,.T.);
#520=EDGE_CURVE('',#422,#424,#176,.T.);
#521=EDGE_CURVE('',#422,#425,#177,.T.);
#522=EDGE_CURVE('',#426,#424,#178,.T.);
#523=EDGE_CURVE('',#425,#426,#179,.T.);
#524=EDGE_CURVE('',#425,#427,#180,.T.);
#525=EDGE_CURVE('',#428,#426,#181,.T.);
#526=EDGE_CURVE('',#427,#428,#182,.T.);
#527=EDGE_CURVE('',#427,#421,#183,.T.);
#528=EDGE_CURVE('',#423,#428,#184,.T.);
#529=EDGE_CURVE('',#429,#430,#185,.T.);
#530=EDGE_CURVE('',#429,#431,#186,.T.);
#531=EDGE_CURVE('',#432,#431,#187,.T.);
#532=EDGE_CURVE('',#430,#432,#188,.T.);
#533=EDGE_CURVE('',#430,#433,#189,.T.);
#534=EDGE_CURVE('',#434,#432,#190,.T.);
#535=EDGE_CURVE('',#434,#433,#191,.T.);
#536=EDGE_CURVE('',#433,#435,#192,.T.);
#537=EDGE_CURVE('',#436,#434,#193,.T.);
#538=EDGE_CURVE('',#436,#435,#194,.T.);
#539=EDGE_CURVE('',#435,#429,#195,.T.);
#540=EDGE_CURVE('',#431,#436,#196,.T.);
#541=EDGE_CURVE('',#437,#438,#197,.T.);
#542=EDGE_CURVE('',#439,#437,#198,.T.);
#543=EDGE_CURVE('',#440,#439,#199,.T.);
#544=EDGE_CURVE('',#440,#438,#200,.T.);
#545=EDGE_CURVE('',#438,#441,#201,.T.);
#546=EDGE_CURVE('',#442,#440,#202,.T.);
#547=EDGE_CURVE('',#441,#442,#203,.T.);
#548=EDGE_CURVE('',#441,#443,#204,.T.);
#549=EDGE_CURVE('',#444,#442,#205,.T.);
#550=EDGE_CURVE('',#443,#444,#206,.T.);
#551=EDGE_CURVE('',#443,#437,#207,.T.);
#552=EDGE_CURVE('',#439,#444,#208,.T.);
#553=EDGE_CURVE('',#445,#446,#209,.T.);
#554=EDGE_CURVE('',#445,#447,#210,.T.);
#555=EDGE_CURVE('',#448,#447,#211,.T.);
#556=EDGE_CURVE('',#446,#448,#212,.T.);
#557=EDGE_CURVE('',#446,#449,#213,.T.);
#558=EDGE_CURVE('',#450,#448,#214,.T.);
#559=EDGE_CURVE('',#450,#449,#215,.T.);
#560=EDGE_CURVE('',#449,#451,#216,.T.);
#561=EDGE_CURVE('',#452,#450,#217,.T.);
#562=EDGE_CURVE('',#452,#451,#218,.T.);
#563=EDGE_CURVE('',#451,#445,#219,.T.);
#564=EDGE_CURVE('',#447,#452,#220,.T.);
#565=EDGE_CURVE('',#453,#454,#221,.T.);
#566=EDGE_CURVE('',#455,#453,#222,.T.);
#567=EDGE_CURVE('',#456,#455,#223,.T.);
#568=EDGE_CURVE('',#456,#454,#224,.T.);
#569=EDGE_CURVE('',#454,#457,#225,.T.);
#570=EDGE_CURVE('',#458,#456,#226,.T.);
#571=EDGE_CURVE('',#457,#458,#227,.T.);
#572=EDGE_CURVE('',#457,#459,#228,.T.);
#573=EDGE_CURVE('',#460,#458,#229,.T.);
#574=EDGE_CURVE('',#459,#460,#230,.T.);
#575=EDGE_CURVE('',#459,#453,#231,.T.);
#576=EDGE_CURVE('',#455,#460,#232,.T.);
#577=EDGE_CURVE('',#461,#462,#19,.T.);
#578=EDGE_CURVE('',#462,#463,#233,.T.);
#579=EDGE_CURVE('',#463,#464,#20,.T.);
#580=EDGE_CURVE('',#464,#461,#234,.T.);
#581=EDGE_CURVE('',#465,#462,#235,.T.);
#582=EDGE_CURVE('',#466,#465,#236,.T.);
#583=EDGE_CURVE('',#463,#466,#237,.T.);
#584=EDGE_CURVE('',#467,#468,#21,.T.);
#585=EDGE_CURVE('',#468,#469,#238,.T.);
#586=EDGE_CURVE('',#469,#470,#22,.T.);
#587=EDGE_CURVE('',#470,#467,#239,.T.);
#588=EDGE_CURVE('',#471,#468,#240,.T.);
#589=EDGE_CURVE('',#472,#471,#241,.T.);
#590=EDGE_CURVE('',#469,#472,#242,.T.);
#591=EDGE_CURVE('',#467,#464,#243,.T.);
#592=EDGE_CURVE('',#461,#470,#244,.T.);
#593=EDGE_CURVE('',#473,#472,#245,.T.);
#594=EDGE_CURVE('',#474,#473,#246,.T.);
#595=EDGE_CURVE('',#474,#475,#247,.T.);
#596=EDGE_CURVE('',#476,#475,#248,.T.);
#597=EDGE_CURVE('',#465,#476,#249,.T.);
#598=EDGE_CURVE('',#477,#478,#250,.T.);
#599=EDGE_CURVE('',#477,#479,#251,.T.);
#600=EDGE_CURVE('',#480,#479,#252,.T.);
#601=EDGE_CURVE('',#478,#480,#253,.T.);
#602=EDGE_CURVE('',#478,#481,#254,.T.);
#603=EDGE_CURVE('',#482,#480,#255,.T.);
#604=EDGE_CURVE('',#482,#481,#256,.T.);
#605=EDGE_CURVE('',#481,#483,#257,.T.);
#606=EDGE_CURVE('',#484,#482,#258,.T.);
#607=EDGE_CURVE('',#484,#483,#259,.T.);
#608=EDGE_CURVE('',#483,#477,#260,.T.);
#609=EDGE_CURVE('',#479,#484,#261,.T.);
#610=EDGE_CURVE('',#485,#486,#262,.T.);
#611=EDGE_CURVE('',#487,#485,#263,.T.);
#612=EDGE_CURVE('',#488,#487,#264,.T.);
#613=EDGE_CURVE('',#488,#486,#265,.T.);
#614=EDGE_CURVE('',#486,#489,#266,.T.);
#615=EDGE_CURVE('',#490,#488,#267,.T.);
#616=EDGE_CURVE('',#490,#489,#268,.T.);
#617=EDGE_CURVE('',#489,#491,#269,.T.);
#618=EDGE_CURVE('',#492,#490,#270,.T.);
#619=EDGE_CURVE('',#492,#491,#271,.T.);
#620=EDGE_CURVE('',#491,#466,#272,.T.);
#621=EDGE_CURVE('',#487,#492,#273,.T.);
#622=EDGE_CURVE('',#471,#485,#274,.T.);
#623=EDGE_CURVE('',#493,#494,#23,.T.);
#624=EDGE_CURVE('',#494,#495,#275,.T.);
#625=EDGE_CURVE('',#495,#496,#24,.T.);
#626=EDGE_CURVE('',#496,#493,#276,.T.);
#627=EDGE_CURVE('',#497,#494,#277,.T.);
#628=EDGE_CURVE('',#498,#497,#278,.T.);
#629=EDGE_CURVE('',#498,#495,#279,.T.);
#630=EDGE_CURVE('',#499,#476,#25,.T.);
#631=EDGE_CURVE('',#499,#500,#280,.T.);
#632=EDGE_CURVE('',#497,#500,#26,.T.);
#633=EDGE_CURVE('',#493,#501,#281,.T.);
#634=EDGE_CURVE('',#473,#501,#27,.T.);
#635=EDGE_CURVE('',#501,#502,#282,.T.);
#636=EDGE_CURVE('',#502,#474,#28,.T.);
#637=EDGE_CURVE('',#475,#503,#29,.T.);
#638=EDGE_CURVE('',#503,#499,#283,.T.);
#639=EDGE_CURVE('',#500,#504,#284,.T.);
#640=EDGE_CURVE('',#504,#498,#30,.T.);
#641=EDGE_CURVE('',#503,#504,#285,.T.);
#642=EDGE_CURVE('',#496,#502,#286,.T.);
#643=ORIENTED_EDGE('',*,*,#505,.F.);
#644=ORIENTED_EDGE('',*,*,#506,.T.);
#645=ORIENTED_EDGE('',*,*,#507,.F.);
#646=ORIENTED_EDGE('',*,*,#508,.F.);
#647=ORIENTED_EDGE('',*,*,#509,.F.);
#648=ORIENTED_EDGE('',*,*,#508,.T.);
#649=ORIENTED_EDGE('',*,*,#510,.F.);
#650=ORIENTED_EDGE('',*,*,#511,.T.);
#651=ORIENTED_EDGE('',*,*,#512,.F.);
#652=ORIENTED_EDGE('',*,*,#511,.F.);
#653=ORIENTED_EDGE('',*,*,#513,.F.);
#654=ORIENTED_EDGE('',*,*,#514,.T.);
#655=ORIENTED_EDGE('',*,*,#515,.F.);
#656=ORIENTED_EDGE('',*,*,#514,.F.);
#657=ORIENTED_EDGE('',*,*,#516,.F.);
#658=ORIENTED_EDGE('',*,*,#506,.F.);
#659=ORIENTED_EDGE('',*,*,#517,.F.);
#660=ORIENTED_EDGE('',*,*,#518,.T.);
#661=ORIENTED_EDGE('',*,*,#519,.F.);
#662=ORIENTED_EDGE('',*,*,#520,.F.);
#663=ORIENTED_EDGE('',*,*,#521,.F.);
#664=ORIENTED_EDGE('',*,*,#520,.T.);
#665=ORIENTED_EDGE('',*,*,#522,.F.);
#666=ORIENTED_EDGE('',*,*,#523,.F.);
#667=ORIENTED_EDGE('',*,*,#512,.T.);
#668=ORIENTED_EDGE('',*,*,#515,.T.);
#669=ORIENTED_EDGE('',*,*,#505,.T.);
#670=ORIENTED_EDGE('',*,*,#509,.T.);
#671=ORIENTED_EDGE('',*,*,#524,.F.);
#672=ORIENTED_EDGE('',*,*,#523,.T.);
#673=ORIENTED_EDGE('',*,*,#525,.F.);
#674=ORIENTED_EDGE('',*,*,#526,.F.);
#675=ORIENTED_EDGE('',*,*,#527,.F.);
#676=ORIENTED_EDGE('',*,*,#526,.T.);
#677=ORIENTED_EDGE('',*,*,#528,.F.);
#678=ORIENTED_EDGE('',*,*,#518,.F.);
#679=ORIENTED_EDGE('',*,*,#513,.T.);
#680=ORIENTED_EDGE('',*,*,#510,.T.);
#681=ORIENTED_EDGE('',*,*,#507,.T.);
#682=ORIENTED_EDGE('',*,*,#516,.T.);
#683=ORIENTED_EDGE('',*,*,#528,.T.);
#684=ORIENTED_EDGE('',*,*,#525,.T.);
#685=ORIENTED_EDGE('',*,*,#522,.T.);
#686=ORIENTED_EDGE('',*,*,#519,.T.);
#687=ORIENTED_EDGE('',*,*,#529,.F.);
#688=ORIENTED_EDGE('',*,*,#530,.T.);
#689=ORIENTED_EDGE('',*,*,#531,.F.);
#690=ORIENTED_EDGE('',*,*,#532,.F.);
#691=ORIENTED_EDGE('',*,*,#533,.F.);
#692=ORIENTED_EDGE('',*,*,#532,.T.);
#693=ORIENTED_EDGE('',*,*,#534,.F.);
#694=ORIENTED_EDGE('',*,*,#535,.T.);
#695=ORIENTED_EDGE('',*,*,#536,.F.);
#696=ORIENTED_EDGE('',*,*,#535,.F.);
#697=ORIENTED_EDGE('',*,*,#537,.F.);
#698=ORIENTED_EDGE('',*,*,#538,.T.);
#699=ORIENTED_EDGE('',*,*,#539,.F.);
#700=ORIENTED_EDGE('',*,*,#538,.F.);
#701=ORIENTED_EDGE('',*,*,#540,.F.);
#702=ORIENTED_EDGE('',*,*,#530,.F.);
#703=ORIENTED_EDGE('',*,*,#541,.F.);
#704=ORIENTED_EDGE('',*,*,#542,.F.);
#705=ORIENTED_EDGE('',*,*,#543,.F.);
#706=ORIENTED_EDGE('',*,*,#544,.T.);
#707=ORIENTED_EDGE('',*,*,#545,.F.);
#708=ORIENTED_EDGE('',*,*,#544,.F.);
#709=ORIENTED_EDGE('',*,*,#546,.F.);
#710=ORIENTED_EDGE('',*,*,#547,.F.);
#711=ORIENTED_EDGE('',*,*,#548,.F.);
#712=ORIENTED_EDGE('',*,*,#547,.T.);
#713=ORIENTED_EDGE('',*,*,#549,.F.);
#714=ORIENTED_EDGE('',*,*,#550,.F.);
#715=ORIENTED_EDGE('',*,*,#551,.F.);
#716=ORIENTED_EDGE('',*,*,#550,.T.);
#717=ORIENTED_EDGE('',*,*,#552,.F.);
#718=ORIENTED_EDGE('',*,*,#542,.T.);
#719=ORIENTED_EDGE('',*,*,#553,.F.);
#720=ORIENTED_EDGE('',*,*,#554,.T.);
#721=ORIENTED_EDGE('',*,*,#555,.F.);
#722=ORIENTED_EDGE('',*,*,#556,.F.);
#723=ORIENTED_EDGE('',*,*,#557,.F.);
#724=ORIENTED_EDGE('',*,*,#556,.T.);
#725=ORIENTED_EDGE('',*,*,#558,.F.);
#726=ORIENTED_EDGE('',*,*,#559,.T.);
#727=ORIENTED_EDGE('',*,*,#560,.F.);
#728=ORIENTED_EDGE('',*,*,#559,.F.);
#729=ORIENTED_EDGE('',*,*,#561,.F.);
#730=ORIENTED_EDGE('',*,*,#562,.T.);
#731=ORIENTED_EDGE('',*,*,#563,.F.);
#732=ORIENTED_EDGE('',*,*,#562,.F.);
#733=ORIENTED_EDGE('',*,*,#564,.F.);
#734=ORIENTED_EDGE('',*,*,#554,.F.);
#735=ORIENTED_EDGE('',*,*,#565,.F.);
#736=ORIENTED_EDGE('',*,*,#566,.F.);
#737=ORIENTED_EDGE('',*,*,#567,.F.);
#738=ORIENTED_EDGE('',*,*,#568,.T.);
#739=ORIENTED_EDGE('',*,*,#569,.F.);
#740=ORIENTED_EDGE('',*,*,#568,.F.);
#741=ORIENTED_EDGE('',*,*,#570,.F.);
#742=ORIENTED_EDGE('',*,*,#571,.F.);
#743=ORIENTED_EDGE('',*,*,#572,.F.);
#744=ORIENTED_EDGE('',*,*,#571,.T.);
#745=ORIENTED_EDGE('',*,*,#573,.F.);
#746=ORIENTED_EDGE('',*,*,#574,.F.);
#747=ORIENTED_EDGE('',*,*,#575,.F.);
#748=ORIENTED_EDGE('',*,*,#574,.T.);
#749=ORIENTED_EDGE('',*,*,#576,.F.);
#750=ORIENTED_EDGE('',*,*,#566,.T.);
#751=ORIENTED_EDGE('',*,*,#577,.T.);
#752=ORIENTED_EDGE('',*,*,#578,.T.);
#753=ORIENTED_EDGE('',*,*,#579,.T.);
#754=ORIENTED_EDGE('',*,*,#580,.T.);
#755=ORIENTED_EDGE('',*,*,#578,.F.);
#756=ORIENTED_EDGE('',*,*,#581,.F.);
#757=ORIENTED_EDGE('',*,*,#582,.F.);
#758=ORIENTED_EDGE('',*,*,#583,.F.);
#759=ORIENTED_EDGE('',*,*,#584,.T.);
#760=ORIENTED_EDGE('',*,*,#585,.T.);
#761=ORIENTED_EDGE('',*,*,#586,.T.);
#762=ORIENTED_EDGE('',*,*,#587,.T.);
#763=ORIENTED_EDGE('',*,*,#585,.F.);
#764=ORIENTED_EDGE('',*,*,#588,.F.);
#765=ORIENTED_EDGE('',*,*,#589,.F.);
#766=ORIENTED_EDGE('',*,*,#590,.F.);
#767=ORIENTED_EDGE('',*,*,#580,.F.);
#768=ORIENTED_EDGE('',*,*,#591,.F.);
#769=ORIENTED_EDGE('',*,*,#587,.F.);
#770=ORIENTED_EDGE('',*,*,#592,.F.);
#771=ORIENTED_EDGE('',*,*,#581,.T.);
#772=ORIENTED_EDGE('',*,*,#577,.F.);
#773=ORIENTED_EDGE('',*,*,#592,.T.);
#774=ORIENTED_EDGE('',*,*,#586,.F.);
#775=ORIENTED_EDGE('',*,*,#590,.T.);
#776=ORIENTED_EDGE('',*,*,#593,.F.);
#777=ORIENTED_EDGE('',*,*,#594,.F.);
#778=ORIENTED_EDGE('',*,*,#595,.T.);
#779=ORIENTED_EDGE('',*,*,#596,.F.);
#780=ORIENTED_EDGE('',*,*,#597,.F.);
#781=ORIENTED_EDGE('',*,*,#598,.F.);
#782=ORIENTED_EDGE('',*,*,#599,.T.);
#783=ORIENTED_EDGE('',*,*,#600,.F.);
#784=ORIENTED_EDGE('',*,*,#601,.F.);
#785=ORIENTED_EDGE('',*,*,#602,.F.);
#786=ORIENTED_EDGE('',*,*,#601,.T.);
#787=ORIENTED_EDGE('',*,*,#603,.F.);
#788=ORIENTED_EDGE('',*,*,#604,.T.);
#789=ORIENTED_EDGE('',*,*,#605,.F.);
#790=ORIENTED_EDGE('',*,*,#604,.F.);
#791=ORIENTED_EDGE('',*,*,#606,.F.);
#792=ORIENTED_EDGE('',*,*,#607,.T.);
#793=ORIENTED_EDGE('',*,*,#608,.F.);
#794=ORIENTED_EDGE('',*,*,#607,.F.);
#795=ORIENTED_EDGE('',*,*,#609,.F.);
#796=ORIENTED_EDGE('',*,*,#599,.F.);
#797=ORIENTED_EDGE('',*,*,#610,.F.);
#798=ORIENTED_EDGE('',*,*,#611,.F.);
#799=ORIENTED_EDGE('',*,*,#612,.F.);
#800=ORIENTED_EDGE('',*,*,#613,.T.);
#801=ORIENTED_EDGE('',*,*,#548,.T.);
#802=ORIENTED_EDGE('',*,*,#551,.T.);
#803=ORIENTED_EDGE('',*,*,#541,.T.);
#804=ORIENTED_EDGE('',*,*,#545,.T.);
#805=ORIENTED_EDGE('',*,*,#572,.T.);
#806=ORIENTED_EDGE('',*,*,#575,.T.);
#807=ORIENTED_EDGE('',*,*,#565,.T.);
#808=ORIENTED_EDGE('',*,*,#569,.T.);
#809=ORIENTED_EDGE('',*,*,#614,.F.);
#810=ORIENTED_EDGE('',*,*,#613,.F.);
#811=ORIENTED_EDGE('',*,*,#615,.F.);
#812=ORIENTED_EDGE('',*,*,#616,.T.);
#813=ORIENTED_EDGE('',*,*,#605,.T.);
#814=ORIENTED_EDGE('',*,*,#608,.T.);
#815=ORIENTED_EDGE('',*,*,#598,.T.);
#816=ORIENTED_EDGE('',*,*,#602,.T.);
#817=ORIENTED_EDGE('',*,*,#617,.F.);
#818=ORIENTED_EDGE('',*,*,#616,.F.);
#819=ORIENTED_EDGE('',*,*,#618,.F.);
#820=ORIENTED_EDGE('',*,*,#619,.T.);
#821=ORIENTED_EDGE('',*,*,#536,.T.);
#822=ORIENTED_EDGE('',*,*,#539,.T.);
#823=ORIENTED_EDGE('',*,*,#529,.T.);
#824=ORIENTED_EDGE('',*,*,#533,.T.);
#825=ORIENTED_EDGE('',*,*,#560,.T.);
#826=ORIENTED_EDGE('',*,*,#563,.T.);
#827=ORIENTED_EDGE('',*,*,#553,.T.);
#828=ORIENTED_EDGE('',*,*,#557,.T.);
#829=ORIENTED_EDGE('',*,*,#583,.T.);
#830=ORIENTED_EDGE('',*,*,#620,.F.);
#831=ORIENTED_EDGE('',*,*,#619,.F.);
#832=ORIENTED_EDGE('',*,*,#621,.F.);
#833=ORIENTED_EDGE('',*,*,#611,.T.);
#834=ORIENTED_EDGE('',*,*,#622,.F.);
#835=ORIENTED_EDGE('',*,*,#588,.T.);
#836=ORIENTED_EDGE('',*,*,#584,.F.);
#837=ORIENTED_EDGE('',*,*,#591,.T.);
#838=ORIENTED_EDGE('',*,*,#579,.F.);
#839=ORIENTED_EDGE('',*,*,#615,.T.);
#840=ORIENTED_EDGE('',*,*,#612,.T.);
#841=ORIENTED_EDGE('',*,*,#621,.T.);
#842=ORIENTED_EDGE('',*,*,#618,.T.);
#843=ORIENTED_EDGE('',*,*,#517,.T.);
#844=ORIENTED_EDGE('',*,*,#521,.T.);
#845=ORIENTED_EDGE('',*,*,#524,.T.);
#846=ORIENTED_EDGE('',*,*,#527,.T.);
#847=ORIENTED_EDGE('',*,*,#623,.T.);
#848=ORIENTED_EDGE('',*,*,#624,.T.);
#849=ORIENTED_EDGE('',*,*,#625,.T.);
#850=ORIENTED_EDGE('',*,*,#626,.T.);
#851=ORIENTED_EDGE('',*,*,#624,.F.);
#852=ORIENTED_EDGE('',*,*,#627,.F.);
#853=ORIENTED_EDGE('',*,*,#628,.F.);
#854=ORIENTED_EDGE('',*,*,#629,.T.);
#855=ORIENTED_EDGE('',*,*,#606,.T.);
#856=ORIENTED_EDGE('',*,*,#603,.T.);
#857=ORIENTED_EDGE('',*,*,#600,.T.);
#858=ORIENTED_EDGE('',*,*,#609,.T.);
#859=ORIENTED_EDGE('',*,*,#582,.T.);
#860=ORIENTED_EDGE('',*,*,#597,.T.);
#861=ORIENTED_EDGE('',*,*,#630,.F.);
#862=ORIENTED_EDGE('',*,*,#631,.T.);
#863=ORIENTED_EDGE('',*,*,#632,.F.);
#864=ORIENTED_EDGE('',*,*,#627,.T.);
#865=ORIENTED_EDGE('',*,*,#623,.F.);
#866=ORIENTED_EDGE('',*,*,#633,.T.);
#867=ORIENTED_EDGE('',*,*,#634,.F.);
#868=ORIENTED_EDGE('',*,*,#593,.T.);
#869=ORIENTED_EDGE('',*,*,#589,.T.);
#870=ORIENTED_EDGE('',*,*,#622,.T.);
#871=ORIENTED_EDGE('',*,*,#610,.T.);
#872=ORIENTED_EDGE('',*,*,#614,.T.);
#873=ORIENTED_EDGE('',*,*,#617,.T.);
#874=ORIENTED_EDGE('',*,*,#620,.T.);
#875=ORIENTED_EDGE('',*,*,#634,.T.);
#876=ORIENTED_EDGE('',*,*,#635,.T.);
#877=ORIENTED_EDGE('',*,*,#636,.T.);
#878=ORIENTED_EDGE('',*,*,#594,.T.);
#879=ORIENTED_EDGE('',*,*,#630,.T.);
#880=ORIENTED_EDGE('',*,*,#596,.T.);
#881=ORIENTED_EDGE('',*,*,#637,.T.);
#882=ORIENTED_EDGE('',*,*,#638,.T.);
#883=ORIENTED_EDGE('',*,*,#632,.T.);
#884=ORIENTED_EDGE('',*,*,#639,.T.);
#885=ORIENTED_EDGE('',*,*,#640,.T.);
#886=ORIENTED_EDGE('',*,*,#628,.T.);
#887=ORIENTED_EDGE('',*,*,#638,.F.);
#888=ORIENTED_EDGE('',*,*,#641,.T.);
#889=ORIENTED_EDGE('',*,*,#639,.F.);
#890=ORIENTED_EDGE('',*,*,#631,.F.);
#891=ORIENTED_EDGE('',*,*,#537,.T.);
#892=ORIENTED_EDGE('',*,*,#534,.T.);
#893=ORIENTED_EDGE('',*,*,#531,.T.);
#894=ORIENTED_EDGE('',*,*,#540,.T.);
#895=ORIENTED_EDGE('',*,*,#561,.T.);
#896=ORIENTED_EDGE('',*,*,#558,.T.);
#897=ORIENTED_EDGE('',*,*,#555,.T.);
#898=ORIENTED_EDGE('',*,*,#564,.T.);
#899=ORIENTED_EDGE('',*,*,#626,.F.);
#900=ORIENTED_EDGE('',*,*,#642,.T.);
#901=ORIENTED_EDGE('',*,*,#635,.F.);
#902=ORIENTED_EDGE('',*,*,#633,.F.);
#903=ORIENTED_EDGE('',*,*,#549,.T.);
#904=ORIENTED_EDGE('',*,*,#546,.T.);
#905=ORIENTED_EDGE('',*,*,#543,.T.);
#906=ORIENTED_EDGE('',*,*,#552,.T.);
#907=ORIENTED_EDGE('',*,*,#573,.T.);
#908=ORIENTED_EDGE('',*,*,#570,.T.);
#909=ORIENTED_EDGE('',*,*,#567,.T.);
#910=ORIENTED_EDGE('',*,*,#576,.T.);
#911=ORIENTED_EDGE('',*,*,#625,.F.);
#912=ORIENTED_EDGE('',*,*,#629,.F.);
#913=ORIENTED_EDGE('',*,*,#640,.F.);
#914=ORIENTED_EDGE('',*,*,#641,.F.);
#915=ORIENTED_EDGE('',*,*,#637,.F.);
#916=ORIENTED_EDGE('',*,*,#595,.F.);
#917=ORIENTED_EDGE('',*,*,#636,.F.);
#918=ORIENTED_EDGE('',*,*,#642,.F.);
#919=PLANE('',#1026);
#920=PLANE('',#1027);
#921=PLANE('',#1028);
#922=PLANE('',#1029);
#923=PLANE('',#1030);
#924=PLANE('',#1031);
#925=PLANE('',#1032);
#926=PLANE('',#1033);
#927=PLANE('',#1034);
#928=PLANE('',#1035);
#929=PLANE('',#1036);
#930=PLANE('',#1037);
#931=PLANE('',#1038);
#932=PLANE('',#1039);
#933=PLANE('',#1040);
#934=PLANE('',#1041);
#935=PLANE('',#1042);
#936=PLANE('',#1043);
#937=PLANE('',#1044);
#938=PLANE('',#1045);
#939=PLANE('',#1046);
#940=PLANE('',#1047);
#941=PLANE('',#1048);
#942=PLANE('',#1049);
#943=PLANE('',#1050);
#944=PLANE('',#1054);
#945=PLANE('',#1058);
#946=PLANE('',#1059);
#947=PLANE('',#1060);
#948=PLANE('',#1061);
#949=PLANE('',#1062);
#950=PLANE('',#1063);
#951=PLANE('',#1064);
#952=PLANE('',#1065);
#953=PLANE('',#1066);
#954=PLANE('',#1067);
#955=PLANE('',#1068);
#956=PLANE('',#1069);
#957=PLANE('',#1073);
#958=PLANE('',#1074);
#959=PLANE('',#1084);
#960=PLANE('',#1085);
#961=PLANE('',#1086);
#962=ADVANCED_FACE('',(#50),#919,.F.);
#963=ADVANCED_FACE('',(#51),#920,.T.);
#964=ADVANCED_FACE('',(#52),#921,.F.);
#965=ADVANCED_FACE('',(#53),#922,.F.);
#966=ADVANCED_FACE('',(#54),#923,.T.);
#967=ADVANCED_FACE('',(#55,#37),#924,.T.);
#968=ADVANCED_FACE('',(#56),#925,.T.);
#969=ADVANCED_FACE('',(#57,#38),#926,.T.);
#970=ADVANCED_FACE('',(#58),#927,.T.);
#971=ADVANCED_FACE('',(#59),#928,.F.);
#972=ADVANCED_FACE('',(#60),#929,.T.);
#973=ADVANCED_FACE('',(#61),#930,.F.);
#974=ADVANCED_FACE('',(#62),#931,.F.);
#975=ADVANCED_FACE('',(#63),#932,.F.);
#976=ADVANCED_FACE('',(#64),#933,.F.);
#977=ADVANCED_FACE('',(#65),#934,.F.);
#978=ADVANCED_FACE('',(#66),#935,.T.);
#979=ADVANCED_FACE('',(#67),#936,.F.);
#980=ADVANCED_FACE('',(#68),#937,.T.);
#981=ADVANCED_FACE('',(#69),#938,.F.);
#982=ADVANCED_FACE('',(#70),#939,.F.);
#983=ADVANCED_FACE('',(#71),#940,.F.);
#984=ADVANCED_FACE('',(#72),#941,.F.);
#985=ADVANCED_FACE('',(#73),#942,.F.);
#986=ADVANCED_FACE('',(#74),#943,.T.);
#987=ADVANCED_FACE('',(#75),#31,.F.);
#988=ADVANCED_FACE('',(#76),#944,.F.);
#989=ADVANCED_FACE('',(#77),#32,.F.);
#990=ADVANCED_FACE('',(#78),#945,.F.);
#991=ADVANCED_FACE('',(#79),#946,.T.);
#992=ADVANCED_FACE('',(#80),#947,.T.);
#993=ADVANCED_FACE('',(#81),#948,.F.);
#994=ADVANCED_FACE('',(#82),#949,.T.);
#995=ADVANCED_FACE('',(#83),#950,.F.);
#996=ADVANCED_FACE('',(#84),#951,.F.);
#997=ADVANCED_FACE('',(#85,#39,#40),#952,.F.);
#998=ADVANCED_FACE('',(#86,#41),#953,.F.);
#999=ADVANCED_FACE('',(#87,#42,#43),#954,.F.);
#1000=ADVANCED_FACE('',(#88),#955,.F.);
#1001=ADVANCED_FACE('',(#89,#44),#956,.T.);
#1002=ADVANCED_FACE('',(#90),#33,.T.);
#1003=ADVANCED_FACE('',(#91,#45),#957,.T.);
#1004=ADVANCED_FACE('',(#92),#958,.T.);
#1005=ADVANCED_FACE('',(#93),#34,.T.);
#1006=ADVANCED_FACE('',(#94),#35,.T.);
#1007=ADVANCED_FACE('',(#95),#36,.T.);
#1008=ADVANCED_FACE('',(#96,#46,#47),#959,.T.);
#1009=ADVANCED_FACE('',(#97,#48,#49),#960,.T.);
#1010=ADVANCED_FACE('',(#98),#961,.F.);
#1011=CLOSED_SHELL('',(#962,#963,#964,#965,#966,#967,#968,#969,#970,#971,
#972,#973,#974,#975,#976,#977,#978,#979,#980,#981,#982,#983,#984,#985,#986,
#987,#988,#989,#990,#991,#992,#993,#994,#995,#996,#997,#998,#999,#1000,
#1001,#1002,#1003,#1004,#1005,#1006,#1007,#1008,#1009,#1010));
#1012=DERIVED_UNIT_ELEMENT(#1014,1.);
#1013=DERIVED_UNIT_ELEMENT(#1631,-3.);
#1014=(
MASS_UNIT()
NAMED_UNIT(*)
SI_UNIT(.KILO.,.GRAM.)
);
#1015=DERIVED_UNIT((#1012,#1013));
#1016=MEASURE_REPRESENTATION_ITEM('density measure',
POSITIVE_RATIO_MEASURE(7850.),#1015);
#1017=PROPERTY_DEFINITION_REPRESENTATION(#1022,#1019);
#1018=PROPERTY_DEFINITION_REPRESENTATION(#1023,#1020);
#1019=REPRESENTATION('material name',(#1021),#1628);
#1020=REPRESENTATION('density',(#1016),#1628);
#1021=DESCRIPTIVE_REPRESENTATION_ITEM('Steel','Steel');
#1022=PROPERTY_DEFINITION('material property','material name',#1643);
#1023=PROPERTY_DEFINITION('material property','density of part',#1643);
#1024=AXIS2_PLACEMENT_3D('',#1342,#1088,#1089);
#1025=AXIS2_PLACEMENT_3D('',#1343,#1090,#1091);
#1026=AXIS2_PLACEMENT_3D('',#1344,#1092,#1093);
#1027=AXIS2_PLACEMENT_3D('',#1353,#1098,#1099);
#1028=AXIS2_PLACEMENT_3D('',#1359,#1103,#1104);
#1029=AXIS2_PLACEMENT_3D('',#1365,#1108,#1109);
#1030=AXIS2_PLACEMENT_3D('',#1368,#1112,#1113);
#1031=AXIS2_PLACEMENT_3D('',#1377,#1118,#1119);
#1032=AXIS2_PLACEMENT_3D('',#1383,#1123,#1124);
#1033=AXIS2_PLACEMENT_3D('',#1389,#1128,#1129);
#1034=AXIS2_PLACEMENT_3D('',#1392,#1132,#1133);
#1035=AXIS2_PLACEMENT_3D('',#1393,#1134,#1135);
#1036=AXIS2_PLACEMENT_3D('',#1402,#1140,#1141);
#1037=AXIS2_PLACEMENT_3D('',#1408,#1145,#1146);
#1038=AXIS2_PLACEMENT_3D('',#1414,#1150,#1151);
#1039=AXIS2_PLACEMENT_3D('',#1417,#1154,#1155);
#1040=AXIS2_PLACEMENT_3D('',#1426,#1160,#1161);
#1041=AXIS2_PLACEMENT_3D('',#1432,#1165,#1166);
#1042=AXIS2_PLACEMENT_3D('',#1438,#1170,#1171);
#1043=AXIS2_PLACEMENT_3D('',#1441,#1174,#1175);
#1044=AXIS2_PLACEMENT_3D('',#1450,#1180,#1181);
#1045=AXIS2_PLACEMENT_3D('',#1456,#1185,#1186);
#1046=AXIS2_PLACEMENT_3D('',#1462,#1190,#1191);
#1047=AXIS2_PLACEMENT_3D('',#1465,#1194,#1195);
#1048=AXIS2_PLACEMENT_3D('',#1474,#1200,#1201);
#1049=AXIS2_PLACEMENT_3D('',#1480,#1205,#1206);
#1050=AXIS2_PLACEMENT_3D('',#1486,#1210,#1211);
#1051=AXIS2_PLACEMENT_3D('',#1489,#1214,#1215);
#1052=AXIS2_PLACEMENT_3D('',#1492,#1216,#1217);
#1053=AXIS2_PLACEMENT_3D('',#1496,#1219,#1220);
#1054=AXIS2_PLACEMENT_3D('',#1498,#1222,#1223);
#1055=AXIS2_PLACEMENT_3D('',#1504,#1227,#1228);
#1056=AXIS2_PLACEMENT_3D('',#1507,#1229,#1230);
#1057=AXIS2_PLACEMENT_3D('',#1511,#1232,#1233);
#1058=AXIS2_PLACEMENT_3D('',#1513,#1235,#1236);
#1059=AXIS2_PLACEMENT_3D('',#1519,#1240,#1241);
#1060=AXIS2_PLACEMENT_3D('',#1522,#1244,#1245);
#1061=AXIS2_PLACEMENT_3D('',#1532,#1251,#1252);
#1062=AXIS2_PLACEMENT_3D('',#1541,#1257,#1258);
#1063=AXIS2_PLACEMENT_3D('',#1547,#1262,#1263);
#1064=AXIS2_PLACEMENT_3D('',#1553,#1267,#1268);
#1065=AXIS2_PLACEMENT_3D('',#1556,#1271,#1272);
#1066=AXIS2_PLACEMENT_3D('',#1565,#1277,#1278);
#1067=AXIS2_PLACEMENT_3D('',#1571,#1282,#1283);
#1068=AXIS2_PLACEMENT_3D('',#1577,#1287,#1288);
#1069=AXIS2_PLACEMENT_3D('',#1581,#1292,#1293);
#1070=AXIS2_PLACEMENT_3D('',#1582,#1294,#1295);
#1071=AXIS2_PLACEMENT_3D('',#1585,#1296,#1297);
#1072=AXIS2_PLACEMENT_3D('',#1589,#1299,#1300);
#1073=AXIS2_PLACEMENT_3D('',#1591,#1302,#1303);
#1074=AXIS2_PLACEMENT_3D('',#1597,#1307,#1308);
#1075=AXIS2_PLACEMENT_3D('',#1599,#1309,#1310);
#1076=AXIS2_PLACEMENT_3D('',#1602,#1312,#1313);
#1077=AXIS2_PLACEMENT_3D('',#1605,#1315,#1316);
#1078=AXIS2_PLACEMENT_3D('',#1606,#1317,#1318);
#1079=AXIS2_PLACEMENT_3D('',#1609,#1320,#1321);
#1080=AXIS2_PLACEMENT_3D('',#1610,#1322,#1323);
#1081=AXIS2_PLACEMENT_3D('',#1612,#1324,#1325);
#1082=AXIS2_PLACEMENT_3D('',#1614,#1327,#1328);
#1083=AXIS2_PLACEMENT_3D('',#1617,#1330,#1331);
#1084=AXIS2_PLACEMENT_3D('',#1618,#1332,#1333);
#1085=AXIS2_PLACEMENT_3D('',#1620,#1335,#1336);
#1086=AXIS2_PLACEMENT_3D('',#1622,#1338,#1339);
#1087=AXIS2_PLACEMENT_3D('',#1623,#1340,#1341);
#1088=DIRECTION('axis',(0.,0.,1.));
#1089=DIRECTION('refdir',(1.,0.,0.));
#1090=DIRECTION('axis',(0.,0.,1.));
#1091=DIRECTION('refdir',(1.,0.,0.));
#1092=DIRECTION('center_axis',(0.,1.,0.));
#1093=DIRECTION('ref_axis',(-1.,0.,0.));
#1094=DIRECTION('',(0.,0.,-1.));
#1095=DIRECTION('',(-1.,0.,0.));
#1096=DIRECTION('',(0.,0.,1.));
#1097=DIRECTION('',(-1.,0.,0.));
#1098=DIRECTION('center_axis',(0.,0.,1.));
#1099=DIRECTION('ref_axis',(1.,0.,0.));
#1100=DIRECTION('',(0.,-1.,0.));
#1101=DIRECTION('',(0.,1.,0.));
#1102=DIRECTION('',(1.,0.,0.));
#1103=DIRECTION('center_axis',(0.,-1.,0.));
#1104=DIRECTION('ref_axis',(1.,0.,0.));
#1105=DIRECTION('',(0.,0.,1.));
#1106=DIRECTION('',(0.,0.,-1.));
#1107=DIRECTION('',(1.,0.,0.));
#1108=DIRECTION('center_axis',(0.,0.,1.));
#1109=DIRECTION('ref_axis',(1.,0.,0.));
#1110=DIRECTION('',(0.,1.,0.));
#1111=DIRECTION('',(0.,-1.,0.));
#1112=DIRECTION('center_axis',(0.,1.,0.));
#1113=DIRECTION('ref_axis',(-1.,0.,0.));
#1114=DIRECTION('',(1.,0.,0.));
#1115=DIRECTION('',(0.,0.,1.));
#1116=DIRECTION('',(-1.,0.,0.));
#1117=DIRECTION('',(0.,0.,1.));
#1118=DIRECTION('center_axis',(1.,0.,0.));
#1119=DIRECTION('ref_axis',(0.,1.,0.));
#1120=DIRECTION('',(0.,-1.,0.));
#1121=DIRECTION('',(0.,1.,0.));
#1122=DIRECTION('',(0.,0.,1.));
#1123=DIRECTION('center_axis',(0.,-1.,0.));
#1124=DIRECTION('ref_axis',(1.,0.,0.));
#1125=DIRECTION('',(-1.,0.,0.));
#1126=DIRECTION('',(1.,0.,0.));
#1127=DIRECTION('',(0.,0.,1.));
#1128=DIRECTION('center_axis',(-1.,0.,0.));
#1129=DIRECTION('ref_axis',(0.,-1.,0.));
#1130=DIRECTION('',(0.,1.,0.));
#1131=DIRECTION('',(0.,-1.,0.));
#1132=DIRECTION('center_axis',(0.,0.,1.));
#1133=DIRECTION('ref_axis',(1.,0.,0.));
#1134=DIRECTION('center_axis',(1.,0.,0.));
#1135=DIRECTION('ref_axis',(0.,1.,0.));
#1136=DIRECTION('',(0.,0.,-1.));
#1137=DIRECTION('',(0.,1.,0.));
#1138=DIRECTION('',(0.,0.,1.));
#1139=DIRECTION('',(0.,1.,0.));
#1140=DIRECTION('center_axis',(0.,0.,1.));
#1141=DIRECTION('ref_axis',(1.,0.,0.));
#1142=DIRECTION('',(-1.,0.,0.));
#1143=DIRECTION('',(1.,0.,0.));
#1144=DIRECTION('',(0.,-1.,0.));
#1145=DIRECTION('center_axis',(-1.,0.,0.));
#1146=DIRECTION('ref_axis',(0.,-1.,0.));
#1147=DIRECTION('',(0.,0.,1.));
#1148=DIRECTION('',(0.,0.,-1.));
#1149=DIRECTION('',(0.,-1.,0.));
#1150=DIRECTION('center_axis',(0.,0.,1.));
#1151=DIRECTION('ref_axis',(1.,0.,0.));
#1152=DIRECTION('',(1.,0.,0.));
#1153=DIRECTION('',(-1.,0.,0.));
#1154=DIRECTION('center_axis',(1.,0.,0.));
#1155=DIRECTION('ref_axis',(0.,1.,0.));
#1156=DIRECTION('',(0.,0.,1.));
#1157=DIRECTION('',(0.,1.,0.));
#1158=DIRECTION('',(0.,0.,-1.));
#1159=DIRECTION('',(0.,1.,0.));
#1160=DIRECTION('center_axis',(0.,0.,1.));
#1161=DIRECTION('ref_axis',(1.,0.,0.));
#1162=DIRECTION('',(-1.,0.,0.));
#1163=DIRECTION('',(1.,0.,0.));
#1164=DIRECTION('',(0.,-1.,0.));
#1165=DIRECTION('center_axis',(-1.,0.,0.));
#1166=DIRECTION('ref_axis',(0.,-1.,0.));
#1167=DIRECTION('',(0.,0.,-1.));
#1168=DIRECTION('',(0.,0.,1.));
#1169=DIRECTION('',(0.,-1.,0.));
#1170=DIRECTION('center_axis',(0.,0.,1.));
#1171=DIRECTION('ref_axis',(1.,0.,0.));
#1172=DIRECTION('',(1.,0.,0.));
#1173=DIRECTION('',(-1.,0.,0.));
#1174=DIRECTION('center_axis',(1.,0.,0.));
#1175=DIRECTION('ref_axis',(0.,1.,0.));
#1176=DIRECTION('',(0.,0.,-1.));
#1177=DIRECTION('',(0.,1.,0.));
#1178=DIRECTION('',(0.,0.,1.));
#1179=DIRECTION('',(0.,1.,0.));
#1180=DIRECTION('center_axis',(0.,0.,1.));
#1181=DIRECTION('ref_axis',(1.,0.,0.));
#1182=DIRECTION('',(-1.,0.,0.));
#1183=DIRECTION('',(1.,0.,0.));
#1184=DIRECTION('',(0.,-1.,0.));
#1185=DIRECTION('center_axis',(-1.,0.,0.));
#1186=DIRECTION('ref_axis',(0.,-1.,0.));
#1187=DIRECTION('',(0.,0.,1.));
#1188=DIRECTION('',(0.,0.,-1.));
#1189=DIRECTION('',(0.,-1.,0.));
#1190=DIRECTION('center_axis',(0.,0.,1.));
#1191=DIRECTION('ref_axis',(1.,0.,0.));
#1192=DIRECTION('',(1.,0.,0.));
#1193=DIRECTION('',(-1.,0.,0.));
#1194=DIRECTION('center_axis',(1.,0.,0.));
#1195=DIRECTION('ref_axis',(0.,1.,0.));
#1196=DIRECTION('',(0.,0.,1.));
#1197=DIRECTION('',(0.,1.,0.));
#1198=DIRECTION('',(0.,0.,-1.));
#1199=DIRECTION('',(0.,1.,0.));
#1200=DIRECTION('center_axis',(0.,0.,1.));
#1201=DIRECTION('ref_axis',(1.,0.,0.));
#1202=DIRECTION('',(-1.,0.,0.));
#1203=DIRECTION('',(1.,0.,0.));
#1204=DIRECTION('',(0.,-1.,0.));
#1205=DIRECTION('center_axis',(-1.,0.,0.));
#1206=DIRECTION('ref_axis',(0.,-1.,0.));
#1207=DIRECTION('',(0.,0.,-1.));
#1208=DIRECTION('',(0.,0.,1.));
#1209=DIRECTION('',(0.,-1.,0.));
#1210=DIRECTION('center_axis',(0.,0.,1.));
#1211=DIRECTION('ref_axis',(1.,0.,0.));
#1212=DIRECTION('',(1.,0.,0.));
#1213=DIRECTION('',(-1.,0.,0.));
#1214=DIRECTION('center_axis',(-1.,0.,0.));
#1215=DIRECTION('ref_axis',(0.,0.707106781186548,-0.707106781186548));
#1216=DIRECTION('center_axis',(1.,0.,0.));
#1217=DIRECTION('ref_axis',(0.,0.707106781186548,-0.707106781186548));
#1218=DIRECTION('',(-1.,0.,0.));
#1219=DIRECTION('center_axis',(-1.,0.,0.));
#1220=DIRECTION('ref_axis',(0.,0.707106781186548,-0.707106781186548));
#1221=DIRECTION('',(1.,0.,0.));
#1222=DIRECTION('center_axis',(0.,1.,0.));
#1223=DIRECTION('ref_axis',(-1.,0.,0.));
#1224=DIRECTION('',(0.,0.,-1.));
#1225=DIRECTION('',(1.,0.,0.));
#1226=DIRECTION('',(0.,0.,1.));
#1227=DIRECTION('center_axis',(1.,-1.11022302462516E-15,0.));
#1228=DIRECTION('ref_axis',(0.,-0.707106781186548,-0.707106781186548));
#1229=DIRECTION('center_axis',(-1.,0.,0.));
#1230=DIRECTION('ref_axis',(0.,-0.707106781186548,-0.707106781186548));
#1231=DIRECTION('',(1.,-1.11022302462516E-15,0.));
#1232=DIRECTION('center_axis',(1.,0.,0.));
#1233=DIRECTION('ref_axis',(0.,-0.707106781186548,-0.707106781186548));
#1234=DIRECTION('',(-1.,1.11022302462516E-15,0.));
#1235=DIRECTION('center_axis',(-1.11022302462516E-15,-1.,0.));
#1236=DIRECTION('ref_axis',(1.,-1.11022302462516E-15,0.));
#1237=DIRECTION('',(0.,0.,-1.));
#1238=DIRECTION('',(-1.,1.11022302462516E-15,0.));
#1239=DIRECTION('',(0.,0.,1.));
#1240=DIRECTION('center_axis',(0.,0.,1.));
#1241=DIRECTION('ref_axis',(1.,0.,0.));
#1242=DIRECTION('',(0.,1.,0.));
#1243=DIRECTION('',(0.,-1.,0.));
#1244=DIRECTION('center_axis',(1.,0.,0.));
#1245=DIRECTION('ref_axis',(0.,1.,0.));
#1246=DIRECTION('',(0.,1.,0.));
#1247=DIRECTION('',(0.,0.,1.));
#1248=DIRECTION('',(0.,1.,0.));
#1249=DIRECTION('',(0.,0.,-1.));
#1250=DIRECTION('',(0.,1.,0.));
#1251=DIRECTION('center_axis',(0.,1.,0.));
#1252=DIRECTION('ref_axis',(-1.,0.,0.));
#1253=DIRECTION('',(0.,0.,-1.));
#1254=DIRECTION('',(-1.,0.,0.));
#1255=DIRECTION('',(0.,0.,1.));
#1256=DIRECTION('',(-1.,0.,0.));
#1257=DIRECTION('center_axis',(0.,0.,1.));
#1258=DIRECTION('ref_axis',(1.,0.,0.));
#1259=DIRECTION('',(0.,-1.,0.));
#1260=DIRECTION('',(0.,1.,0.));
#1261=DIRECTION('',(1.,1.11022302462516E-15,0.));
#1262=DIRECTION('center_axis',(1.11022302462516E-15,-1.,0.));
#1263=DIRECTION('ref_axis',(1.,1.11022302462516E-15,0.));
#1264=DIRECTION('',(0.,0.,1.));
#1265=DIRECTION('',(0.,0.,-1.));
#1266=DIRECTION('',(1.,1.11022302462516E-15,0.));
#1267=DIRECTION('center_axis',(0.,0.,1.));
#1268=DIRECTION('ref_axis',(1.,0.,0.));
#1269=DIRECTION('',(0.,1.,0.));
#1270=DIRECTION('',(0.,-1.,0.));
#1271=DIRECTION('center_axis',(0.,-1.,0.));
#1272=DIRECTION('ref_axis',(1.,0.,0.));
#1273=DIRECTION('',(-1.,0.,0.));
#1274=DIRECTION('',(0.,0.,1.));
#1275=DIRECTION('',(1.,0.,0.));
#1276=DIRECTION('',(0.,0.,1.));
#1277=DIRECTION('center_axis',(-1.,0.,0.));
#1278=DIRECTION('ref_axis',(0.,-1.,0.));
#1279=DIRECTION('',(0.,1.,0.));
#1280=DIRECTION('',(0.,-1.,0.));
#1281=DIRECTION('',(0.,0.,1.));
#1282=DIRECTION('center_axis',(0.,1.,0.));
#1283=DIRECTION('ref_axis',(-1.,0.,0.));
#1284=DIRECTION('',(1.,0.,0.));
#1285=DIRECTION('',(-1.,0.,0.));
#1286=DIRECTION('',(0.,0.,1.));
#1287=DIRECTION('center_axis',(1.,0.,0.));
#1288=DIRECTION('ref_axis',(0.,1.,0.));
#1289=DIRECTION('',(0.,-1.,0.));
#1290=DIRECTION('',(0.,1.,0.));
#1291=DIRECTION('',(0.,-1.,0.));
#1292=DIRECTION('center_axis',(0.,0.,1.));
#1293=DIRECTION('ref_axis',(1.,0.,0.));
#1294=DIRECTION('center_axis',(0.,0.,1.));
#1295=DIRECTION('ref_axis',(-0.707106781186547,-0.707106781186547,0.));
#1296=DIRECTION('center_axis',(0.,0.,-1.));
#1297=DIRECTION('ref_axis',(-0.707106781186547,-0.707106781186547,0.));
#1298=DIRECTION('',(0.,0.,-1.));
#1299=DIRECTION('center_axis',(0.,0.,1.));
#1300=DIRECTION('ref_axis',(-0.707106781186547,-0.707106781186547,0.));
#1301=DIRECTION('',(0.,0.,1.));
#1302=DIRECTION('center_axis',(-1.,0.,0.));
#1303=DIRECTION('ref_axis',(0.,-1.,0.));
#1304=DIRECTION('',(0.,-1.,0.));
#1305=DIRECTION('',(0.,0.,1.));
#1306=DIRECTION('',(0.,-1.,0.));
#1307=DIRECTION('center_axis',(0.,0.,1.));
#1308=DIRECTION('ref_axis',(1.,0.,0.));
#1309=DIRECTION('center_axis',(0.,0.,-1.));
#1310=DIRECTION('ref_axis',(0.707106781186548,0.707106781186548,0.));
#1311=DIRECTION('',(-1.,0.,0.));
#1312=DIRECTION('center_axis',(0.,0.,-1.));
#1313=DIRECTION('ref_axis',(-0.707106781186549,0.707106781186546,0.));
#1314=DIRECTION('',(1.,0.,0.));
#1315=DIRECTION('center_axis',(0.,0.,-1.));
#1316=DIRECTION('ref_axis',(0.707106781186546,-0.707106781186549,0.));
#1317=DIRECTION('center_axis',(0.,0.,1.));
#1318=DIRECTION('ref_axis',(0.707106781186546,-0.707106781186549,0.));
#1319=DIRECTION('',(0.,0.,-1.));
#1320=DIRECTION('center_axis',(0.,0.,1.));
#1321=DIRECTION('ref_axis',(0.707106781186546,-0.707106781186549,0.));
#1322=DIRECTION('center_axis',(0.,0.,1.));
#1323=DIRECTION('ref_axis',(0.707106781186548,0.707106781186548,0.));
#1324=DIRECTION('center_axis',(0.,0.,1.));
#1325=DIRECTION('ref_axis',(0.707106781186548,0.707106781186548,0.));
#1326=DIRECTION('',(0.,0.,1.));
#1327=DIRECTION('center_axis',(0.,0.,1.));
#1328=DIRECTION('ref_axis',(-0.707106781186549,0.707106781186546,0.));
#1329=DIRECTION('',(0.,0.,-1.));
#1330=DIRECTION('center_axis',(0.,0.,1.));
#1331=DIRECTION('ref_axis',(-0.707106781186549,0.707106781186546,0.));
#1332=DIRECTION('center_axis',(0.,1.,0.));
#1333=DIRECTION('ref_axis',(-1.,0.,0.));
#1334=DIRECTION('',(-1.,0.,0.));
#1335=DIRECTION('center_axis',(0.,-1.,0.));
#1336=DIRECTION('ref_axis',(1.,0.,0.));
#1337=DIRECTION('',(1.,0.,0.));
#1338=DIRECTION('center_axis',(0.,0.,1.));
#1339=DIRECTION('ref_axis',(1.,0.,0.));
#1340=DIRECTION('',(0.,0.,1.));
#1341=DIRECTION('',(1.,0.,0.));
#1342=CARTESIAN_POINT('',(0.,0.,0.));
#1343=CARTESIAN_POINT('',(0.,0.,0.));
#1344=CARTESIAN_POINT('Origin',(9.3,4.45,0.3));
#1345=CARTESIAN_POINT('',(9.2,4.45,0.5));
#1346=CARTESIAN_POINT('',(9.2,4.45,0.3));
#1347=CARTESIAN_POINT('',(9.2,4.45,0.25));
#1348=CARTESIAN_POINT('',(8.4,4.45,0.5));
#1349=CARTESIAN_POINT('',(9.3,4.45,0.5));
#1350=CARTESIAN_POINT('',(8.4,4.45,0.3));
#1351=CARTESIAN_POINT('',(8.4,4.45,0.25));
#1352=CARTESIAN_POINT('',(9.3,4.45,0.3));
#1353=CARTESIAN_POINT('Origin',(8.8,4.25,0.3));
#1354=CARTESIAN_POINT('',(9.2,4.05,0.3));
#1355=CARTESIAN_POINT('',(9.2,4.,0.3));
#1356=CARTESIAN_POINT('',(8.4,4.05,0.3));
#1357=CARTESIAN_POINT('',(8.4,4.5,0.3));
#1358=CARTESIAN_POINT('',(8.3,4.05,0.3));
#1359=CARTESIAN_POINT('Origin',(8.3,4.05,0.3));
#1360=CARTESIAN_POINT('',(9.2,4.05,0.5));
#1361=CARTESIAN_POINT('',(9.2,4.05,0.25));
#1362=CARTESIAN_POINT('',(8.4,4.05,0.5));
#1363=CARTESIAN_POINT('',(8.4,4.05,0.25));
#1364=CARTESIAN_POINT('',(8.3,4.05,0.5));
#1365=CARTESIAN_POINT('Origin',(8.8,4.25,0.5));
#1366=CARTESIAN_POINT('',(9.2,4.,0.5));
#1367=CARTESIAN_POINT('',(8.4,4.5,0.5));
#1368=CARTESIAN_POINT('Origin',(9.2,4.75,0.2));
#1369=CARTESIAN_POINT('',(8.4,4.75,0.2));
#1370=CARTESIAN_POINT('',(9.2,4.75,0.2));
#1371=CARTESIAN_POINT('',(7.35,4.75,0.2));
#1372=CARTESIAN_POINT('',(8.4,4.75,0.7));
#1373=CARTESIAN_POINT('',(8.4,4.75,0.2));
#1374=CARTESIAN_POINT('',(9.2,4.75,0.7));
#1375=CARTESIAN_POINT('',(9.2,4.75,0.7));
#1376=CARTESIAN_POINT('',(9.2,4.75,0.2));
#1377=CARTESIAN_POINT('Origin',(9.2,3.75,0.2));
#1378=CARTESIAN_POINT('',(9.2,3.75,0.2));
#1379=CARTESIAN_POINT('',(9.2,4.,0.2));
#1380=CARTESIAN_POINT('',(9.2,3.75,0.7));
#1381=CARTESIAN_POINT('',(9.2,3.75,0.7));
#1382=CARTESIAN_POINT('',(9.2,3.75,0.2));
#1383=CARTESIAN_POINT('Origin',(8.4,3.75,0.2));
#1384=CARTESIAN_POINT('',(8.4,3.75,0.2));
#1385=CARTESIAN_POINT('',(6.95,3.75,0.2));
#1386=CARTESIAN_POINT('',(8.4,3.75,0.7));
#1387=CARTESIAN_POINT('',(8.4,3.75,0.7));
#1388=CARTESIAN_POINT('',(8.4,3.75,0.2));
#1389=CARTESIAN_POINT('Origin',(8.4,4.75,0.2));
#1390=CARTESIAN_POINT('',(8.4,4.5,0.2));
#1391=CARTESIAN_POINT('',(8.4,4.75,0.7));
#1392=CARTESIAN_POINT('Origin',(8.8,4.25,0.7));
#1393=CARTESIAN_POINT('Origin',(8.36,7.2,1.77));
#1394=CARTESIAN_POINT('',(8.36,7.3,2.03));
#1395=CARTESIAN_POINT('',(8.36,7.3,1.77));
#1396=CARTESIAN_POINT('',(8.36,7.3,0.985));
#1397=CARTESIAN_POINT('',(8.36,7.5,2.03));
#1398=CARTESIAN_POINT('',(8.36,7.2,2.03));
#1399=CARTESIAN_POINT('',(8.36,7.5,1.77));
#1400=CARTESIAN_POINT('',(8.36,7.5,0.885));
#1401=CARTESIAN_POINT('',(8.36,7.2,1.77));
#1402=CARTESIAN_POINT('Origin',(7.93,7.4,1.77));
#1403=CARTESIAN_POINT('',(7.5,7.3,1.77));
#1404=CARTESIAN_POINT('',(8.865,7.3,1.77));
#1405=CARTESIAN_POINT('',(7.5,7.5,1.77));
#1406=CARTESIAN_POINT('',(8.965,7.5,1.77));
#1407=CARTESIAN_POINT('',(7.5,7.6,1.77));
#1408=CARTESIAN_POINT('Origin',(7.5,7.6,1.77));
#1409=CARTESIAN_POINT('',(7.5,7.3,2.03));
#1410=CARTESIAN_POINT('',(7.5,7.3,0.985));
#1411=CARTESIAN_POINT('',(7.5,7.5,2.03));
#1412=CARTESIAN_POINT('',(7.5,7.5,0.885));
#1413=CARTESIAN_POINT('',(7.5,7.6,2.03));
#1414=CARTESIAN_POINT('Origin',(7.93,7.4,2.03));
#1415=CARTESIAN_POINT('',(8.865,7.3,2.03));
#1416=CARTESIAN_POINT('',(8.965,7.5,2.03));
#1417=CARTESIAN_POINT('Origin',(8.36,0.9,1.77));
#1418=CARTESIAN_POINT('',(8.36,1.2,1.77));
#1419=CARTESIAN_POINT('',(8.36,1.2,2.03));
#1420=CARTESIAN_POINT('',(8.36,1.2,0.985));
#1421=CARTESIAN_POINT('',(8.36,1.,1.77));
#1422=CARTESIAN_POINT('',(8.36,0.9,1.77));
#1423=CARTESIAN_POINT('',(8.36,1.,2.03));
#1424=CARTESIAN_POINT('',(8.36,1.,0.885));
#1425=CARTESIAN_POINT('',(8.36,0.9,2.03));
#1426=CARTESIAN_POINT('Origin',(7.93,1.1,2.03));
#1427=CARTESIAN_POINT('',(7.5,1.2,2.03));
#1428=CARTESIAN_POINT('',(4.565,1.2,2.03));
#1429=CARTESIAN_POINT('',(7.5,1.,2.03));
#1430=CARTESIAN_POINT('',(4.465,1.,2.03));
#1431=CARTESIAN_POINT('',(7.5,1.3,2.03));
#1432=CARTESIAN_POINT('Origin',(7.5,1.3,1.77));
#1433=CARTESIAN_POINT('',(7.5,1.2,1.77));
#1434=CARTESIAN_POINT('',(7.5,1.2,0.985));
#1435=CARTESIAN_POINT('',(7.5,1.,1.77));
#1436=CARTESIAN_POINT('',(7.5,1.,0.885));
#1437=CARTESIAN_POINT('',(7.5,1.3,1.77));
#1438=CARTESIAN_POINT('Origin',(7.93,1.1,1.77));
#1439=CARTESIAN_POINT('',(4.565,1.2,1.77));
#1440=CARTESIAN_POINT('',(4.465,1.,1.77));
#1441=CARTESIAN_POINT('Origin',(3.5,7.2,1.77));
#1442=CARTESIAN_POINT('',(3.5,7.3,2.03));
#1443=CARTESIAN_POINT('',(3.5,7.3,1.77));
#1444=CARTESIAN_POINT('',(3.5,7.3,0.985));
#1445=CARTESIAN_POINT('',(3.5,7.5,2.03));
#1446=CARTESIAN_POINT('',(3.5,7.2,2.03));
#1447=CARTESIAN_POINT('',(3.5,7.5,1.77));
#1448=CARTESIAN_POINT('',(3.5,7.5,0.885));
#1449=CARTESIAN_POINT('',(3.5,7.2,1.77));
#1450=CARTESIAN_POINT('Origin',(3.07,7.4,1.77));
#1451=CARTESIAN_POINT('',(2.64,7.3,1.77));
#1452=CARTESIAN_POINT('',(6.435,7.3,1.77));
#1453=CARTESIAN_POINT('',(2.64,7.5,1.77));
#1454=CARTESIAN_POINT('',(6.535,7.5,1.77));
#1455=CARTESIAN_POINT('',(2.64,7.6,1.77));
#1456=CARTESIAN_POINT('Origin',(2.64,7.6,1.77));
#1457=CARTESIAN_POINT('',(2.64,7.3,2.03));
#1458=CARTESIAN_POINT('',(2.64,7.3,0.985));
#1459=CARTESIAN_POINT('',(2.64,7.5,2.03));
#1460=CARTESIAN_POINT('',(2.64,7.5,0.885));
#1461=CARTESIAN_POINT('',(2.64,7.6,2.03));
#1462=CARTESIAN_POINT('Origin',(3.07,7.4,2.03));
#1463=CARTESIAN_POINT('',(6.435,7.3,2.03));
#1464=CARTESIAN_POINT('',(6.535,7.5,2.03));
#1465=CARTESIAN_POINT('Origin',(3.5,0.9,1.77));
#1466=CARTESIAN_POINT('',(3.5,1.2,1.77));
#1467=CARTESIAN_POINT('',(3.5,1.2,2.03));
#1468=CARTESIAN_POINT('',(3.5,1.2,0.985));
#1469=CARTESIAN_POINT('',(3.5,1.,1.77));
#1470=CARTESIAN_POINT('',(3.5,0.9,1.77));
#1471=CARTESIAN_POINT('',(3.5,1.,2.03));
#1472=CARTESIAN_POINT('',(3.5,1.,0.885));
#1473=CARTESIAN_POINT('',(3.5,0.9,2.03));
#1474=CARTESIAN_POINT('Origin',(3.07,1.1,2.03));
#1475=CARTESIAN_POINT('',(2.64,1.2,2.03));
#1476=CARTESIAN_POINT('',(2.135,1.2,2.03));
#1477=CARTESIAN_POINT('',(2.64,1.,2.03));
#1478=CARTESIAN_POINT('',(2.035,1.,2.03));
#1479=CARTESIAN_POINT('',(2.64,1.3,2.03));
#1480=CARTESIAN_POINT('Origin',(2.64,1.3,1.77));
#1481=CARTESIAN_POINT('',(2.64,1.2,1.77));
#1482=CARTESIAN_POINT('',(2.64,1.2,0.985));
#1483=CARTESIAN_POINT('',(2.64,1.,1.77));
#1484=CARTESIAN_POINT('',(2.64,1.,0.885));
#1485=CARTESIAN_POINT('',(2.64,1.3,1.77));
#1486=CARTESIAN_POINT('Origin',(3.07,1.1,1.77));
#1487=CARTESIAN_POINT('',(2.135,1.2,1.77));
#1488=CARTESIAN_POINT('',(2.035,1.,1.77));
#1489=CARTESIAN_POINT('Origin',(10.,4.27,2.83));
#1490=CARTESIAN_POINT('',(10.,4.27,2.5));
#1491=CARTESIAN_POINT('',(10.,4.6,2.83));
#1492=CARTESIAN_POINT('Origin',(10.,4.27,2.83));
#1493=CARTESIAN_POINT('',(9.8,4.6,2.83));
#1494=CARTESIAN_POINT('',(10.,4.6,2.83));
#1495=CARTESIAN_POINT('',(9.8,4.27,2.5));
#1496=CARTESIAN_POINT('Origin',(9.8,4.27,2.83));
#1497=CARTESIAN_POINT('',(10.,4.27,2.5));
#1498=CARTESIAN_POINT('Origin',(10.1,4.6,2.5));
#1499=CARTESIAN_POINT('',(10.,4.6,3.2));
#1500=CARTESIAN_POINT('',(10.,4.6,1.25));
#1501=CARTESIAN_POINT('',(9.8,4.6,3.2));
#1502=CARTESIAN_POINT('',(7.8,4.6,3.2));
#1503=CARTESIAN_POINT('',(9.8,4.6,1.35));
#1504=CARTESIAN_POINT('Origin',(9.8,4.23,2.83));
#1505=CARTESIAN_POINT('',(9.8,4.23,2.5));
#1506=CARTESIAN_POINT('',(9.8,3.9,2.83));
#1507=CARTESIAN_POINT('Origin',(9.8,4.23,2.83));
#1508=CARTESIAN_POINT('',(10.,3.9,2.83));
#1509=CARTESIAN_POINT('',(9.8,3.9,2.83));
#1510=CARTESIAN_POINT('',(10.,4.23,2.5));
#1511=CARTESIAN_POINT('Origin',(10.,4.23,2.83));
#1512=CARTESIAN_POINT('',(9.8,4.23,2.5));
#1513=CARTESIAN_POINT('Origin',(9.7,3.9,2.5));
#1514=CARTESIAN_POINT('',(9.8,3.9,3.2));
#1515=CARTESIAN_POINT('',(9.8,3.9,1.35));
#1516=CARTESIAN_POINT('',(10.,3.9,3.2));
#1517=CARTESIAN_POINT('',(7.6,3.9,3.2));
#1518=CARTESIAN_POINT('',(10.,3.9,1.25));
#1519=CARTESIAN_POINT('Origin',(9.9,4.25,2.5));
#1520=CARTESIAN_POINT('',(9.8,2.725,2.5));
#1521=CARTESIAN_POINT('',(10.,2.625,2.5));
#1522=CARTESIAN_POINT('Origin',(10.,1.,0.));
#1523=CARTESIAN_POINT('',(10.,1.2,3.2));
#1524=CARTESIAN_POINT('',(10.,1.,3.2));
#1525=CARTESIAN_POINT('',(10.,1.2,0.));
#1526=CARTESIAN_POINT('',(10.,1.2,0.));
#1527=CARTESIAN_POINT('',(10.,7.3,0.));
#1528=CARTESIAN_POINT('',(10.,1.,0.));
#1529=CARTESIAN_POINT('',(10.,7.3,3.2));
#1530=CARTESIAN_POINT('',(10.,7.3,0.));
#1531=CARTESIAN_POINT('',(10.,1.,3.2));
#1532=CARTESIAN_POINT('Origin',(1.3,5.05,0.4));
#1533=CARTESIAN_POINT('',(1.2,5.05,1.4));
#1534=CARTESIAN_POINT('',(1.2,5.05,0.4));
#1535=CARTESIAN_POINT('',(1.2,5.05,0.3));
#1536=CARTESIAN_POINT('',(1.,5.05,1.4));
#1537=CARTESIAN_POINT('',(1.3,5.05,1.4));
#1538=CARTESIAN_POINT('',(1.,5.05,0.4));
#1539=CARTESIAN_POINT('',(1.,5.05,0.2));
#1540=CARTESIAN_POINT('',(1.3,5.05,0.4));
#1541=CARTESIAN_POINT('Origin',(1.1,4.25,0.4));
#1542=CARTESIAN_POINT('',(1.2,3.45,0.4));
#1543=CARTESIAN_POINT('',(1.2,5.775,0.4));
#1544=CARTESIAN_POINT('',(1.,3.45,0.4));
#1545=CARTESIAN_POINT('',(1.,5.875,0.4));
#1546=CARTESIAN_POINT('',(0.9,3.45,0.4));
#1547=CARTESIAN_POINT('Origin',(0.9,3.45,0.4));
#1548=CARTESIAN_POINT('',(1.2,3.45,1.4));
#1549=CARTESIAN_POINT('',(1.2,3.45,0.3));
#1550=CARTESIAN_POINT('',(1.,3.45,1.4));
#1551=CARTESIAN_POINT('',(1.,3.45,0.2));
#1552=CARTESIAN_POINT('',(0.9,3.45,1.4));
#1553=CARTESIAN_POINT('Origin',(1.1,4.25,1.4));
#1554=CARTESIAN_POINT('',(1.2,5.775,1.4));
#1555=CARTESIAN_POINT('',(1.,5.875,1.4));
#1556=CARTESIAN_POINT('Origin',(1.2,1.2,0.2));
#1557=CARTESIAN_POINT('',(9.8,1.2,3.2));
#1558=CARTESIAN_POINT('',(1.2,1.2,3.2));
#1559=CARTESIAN_POINT('',(3.35,1.2,3.2));
#1560=CARTESIAN_POINT('',(9.8,1.2,0.2));
#1561=CARTESIAN_POINT('',(9.8,1.2,0.2));
#1562=CARTESIAN_POINT('',(1.2,1.2,0.2));
#1563=CARTESIAN_POINT('',(1.2,1.2,0.2));
#1564=CARTESIAN_POINT('',(1.2,1.2,0.2));
#1565=CARTESIAN_POINT('Origin',(1.2,7.3,0.2));
#1566=CARTESIAN_POINT('',(1.2,7.3,3.2));
#1567=CARTESIAN_POINT('',(1.2,5.775,3.2));
#1568=CARTESIAN_POINT('',(1.2,7.3,0.2));
#1569=CARTESIAN_POINT('',(1.2,7.3,0.2));
#1570=CARTESIAN_POINT('',(1.2,7.3,0.2));
#1571=CARTESIAN_POINT('Origin',(9.8,7.3,0.2));
#1572=CARTESIAN_POINT('',(9.8,7.3,3.2));
#1573=CARTESIAN_POINT('',(7.65,7.3,3.2));
#1574=CARTESIAN_POINT('',(9.8,7.3,0.2));
#1575=CARTESIAN_POINT('',(9.8,7.3,0.2));
#1576=CARTESIAN_POINT('',(9.8,7.3,0.2));
#1577=CARTESIAN_POINT('Origin',(9.8,1.2,0.2));
#1578=CARTESIAN_POINT('',(9.8,2.725,3.2));
#1579=CARTESIAN_POINT('',(9.8,1.2,0.2));
#1580=CARTESIAN_POINT('',(9.8,2.725,3.2));
#1581=CARTESIAN_POINT('Origin',(5.5,4.25,0.2));
#1582=CARTESIAN_POINT('Origin',(1.2,1.2,0.));
#1583=CARTESIAN_POINT('',(1.2,1.,3.2));
#1584=CARTESIAN_POINT('',(1.,1.2,3.2));
#1585=CARTESIAN_POINT('Origin',(1.2,1.2,3.2));
#1586=CARTESIAN_POINT('',(1.,1.2,0.));
#1587=CARTESIAN_POINT('',(1.,1.2,0.));
#1588=CARTESIAN_POINT('',(1.2,1.,0.));
#1589=CARTESIAN_POINT('Origin',(1.2,1.2,0.));
#1590=CARTESIAN_POINT('',(1.2,1.,0.));
#1591=CARTESIAN_POINT('Origin',(1.,7.5,0.));
#1592=CARTESIAN_POINT('',(1.,7.3,3.2));
#1593=CARTESIAN_POINT('',(1.,7.5,3.2));
#1594=CARTESIAN_POINT('',(1.,7.3,0.));
#1595=CARTESIAN_POINT('',(1.,7.3,0.));
#1596=CARTESIAN_POINT('',(1.,7.5,0.));
#1597=CARTESIAN_POINT('Origin',(5.5,4.25,3.2));
#1598=CARTESIAN_POINT('',(9.8,7.5,3.2));
#1599=CARTESIAN_POINT('Origin',(9.8,7.3,3.2));
#1600=CARTESIAN_POINT('',(1.2,7.5,3.2));
#1601=CARTESIAN_POINT('',(10.,7.5,3.2));
#1602=CARTESIAN_POINT('Origin',(1.2,7.3,3.2));
#1603=CARTESIAN_POINT('',(9.8,1.,3.2));
#1604=CARTESIAN_POINT('',(1.,1.,3.2));
#1605=CARTESIAN_POINT('Origin',(9.8,1.2,3.2));
#1606=CARTESIAN_POINT('Origin',(9.8,1.2,0.));
#1607=CARTESIAN_POINT('',(9.8,1.,0.));
#1608=CARTESIAN_POINT('',(9.8,1.,0.));
#1609=CARTESIAN_POINT('Origin',(9.8,1.2,0.));
#1610=CARTESIAN_POINT('Origin',(9.8,7.3,0.));
#1611=CARTESIAN_POINT('',(9.8,7.5,0.));
#1612=CARTESIAN_POINT('Origin',(9.8,7.3,0.));
#1613=CARTESIAN_POINT('',(9.8,7.5,0.));
#1614=CARTESIAN_POINT('Origin',(1.2,7.3,0.));
#1615=CARTESIAN_POINT('',(1.2,7.5,0.));
#1616=CARTESIAN_POINT('',(1.2,7.5,0.));
#1617=CARTESIAN_POINT('Origin',(1.2,7.3,0.));
#1618=CARTESIAN_POINT('Origin',(10.,7.5,0.));
#1619=CARTESIAN_POINT('',(10.,7.5,0.));
#1620=CARTESIAN_POINT('Origin',(1.,1.,0.));
#1621=CARTESIAN_POINT('',(1.,1.,0.));
#1622=CARTESIAN_POINT('Origin',(5.5,4.25,0.));
#1623=CARTESIAN_POINT('',(0.,0.,0.));
#1624=UNCERTAINTY_MEASURE_WITH_UNIT(LENGTH_MEASURE(0.001),#1630,
'DISTANCE_ACCURACY_VALUE',
'Maximum model space distance between geometric entities at asserted c
onnectivities');
#1625=UNCERTAINTY_MEASURE_WITH_UNIT(LENGTH_MEASURE(0.001),#1630,
'DISTANCE_ACCURACY_VALUE',
'Maximum model space distance between geometric entities at asserted c
onnectivities');
#1626=UNCERTAINTY_MEASURE_WITH_UNIT(LENGTH_MEASURE(0.001),#1630,
'DISTANCE_ACCURACY_VALUE',
'Maximum model space distance between geometric entities at asserted c
onnectivities');
#1627=(
GEOMETRIC_REPRESENTATION_CONTEXT(3)
GLOBAL_UNCERTAINTY_ASSIGNED_CONTEXT((#1624))
GLOBAL_UNIT_ASSIGNED_CONTEXT((#1630,#1632,#1633))
REPRESENTATION_CONTEXT('','3D')
);
#1628=(
GEOMETRIC_REPRESENTATION_CONTEXT(3)
GLOBAL_UNCERTAINTY_ASSIGNED_CONTEXT((#1625))
GLOBAL_UNIT_ASSIGNED_CONTEXT((#1630,#1632,#1633))
REPRESENTATION_CONTEXT('','3D')
);
#1629=(
GEOMETRIC_REPRESENTATION_CONTEXT(3)
GLOBAL_UNCERTAINTY_ASSIGNED_CONTEXT((#1626))
GLOBAL_UNIT_ASSIGNED_CONTEXT((#1630,#1632,#1633))
REPRESENTATION_CONTEXT('','3D')
);
#1630=(
LENGTH_UNIT()
NAMED_UNIT(*)
SI_UNIT(.CENTI.,.METRE.)
);
#1631=(
LENGTH_UNIT()
NAMED_UNIT(*)
SI_UNIT($,.METRE.)
);
#1632=(
NAMED_UNIT(*)
PLANE_ANGLE_UNIT()
SI_UNIT($,.RADIAN.)
);
#1633=(
NAMED_UNIT(*)
SI_UNIT($,.STERADIAN.)
SOLID_ANGLE_UNIT()
);
#1634=SHAPE_DEFINITION_REPRESENTATION(#1636,#1639);
#1635=SHAPE_DEFINITION_REPRESENTATION(#1637,#1640);
#1636=PRODUCT_DEFINITION_SHAPE('',$,#1642);
#1637=PRODUCT_DEFINITION_SHAPE('',$,#1643);
#1638=PRODUCT_DEFINITION_SHAPE($,$,#14);
#1639=SHAPE_REPRESENTATION('',(#1024,#1087),#1627);
#1640=SHAPE_REPRESENTATION('',(#1025),#1628);
#1641=PRODUCT_DEFINITION_CONTEXT('part definition',#1649,'design');
#1642=PRODUCT_DEFINITION('Calf Dyno - snap enclosure v1',
'Calf Dyno - snap enclosure v1 v1',#1644,#1641);
#1643=PRODUCT_DEFINITION('Base - print floor down',
'Base - print floor down',#1645,#1641);
#1644=PRODUCT_DEFINITION_FORMATION('',$,#1651);
#1645=PRODUCT_DEFINITION_FORMATION('',$,#1652);
#1646=PRODUCT_RELATED_PRODUCT_CATEGORY(
'Calf Dyno - snap enclosure v1 v1','Calf Dyno - snap enclosure v1 v1',(#1651));
#1647=PRODUCT_RELATED_PRODUCT_CATEGORY('Base - print floor down',
'Base - print floor down',(#1652));
#1648=APPLICATION_PROTOCOL_DEFINITION('international standard',
'automotive_design',2009,#1649);
#1649=APPLICATION_CONTEXT(
'Core Data for Automotive Mechanical Design Process');
#1650=PRODUCT_CONTEXT('part definition',#1649,'mechanical');
#1651=PRODUCT('Calf Dyno - snap enclosure v1',
'Calf Dyno - snap enclosure v1 v1',$,(#1650));
#1652=PRODUCT('Base - print floor down','Base - print floor down',$,(#1650));
#1653=PRESENTATION_STYLE_ASSIGNMENT((#1654));
#1654=SURFACE_STYLE_USAGE(.BOTH.,#1655);
#1655=SURFACE_SIDE_STYLE('',(#1656));
#1656=SURFACE_STYLE_FILL_AREA(#1657);
#1657=FILL_AREA_STYLE('Steel - Satin',(#1658));
#1658=FILL_AREA_STYLE_COLOUR('Steel - Satin',#1659);
#1659=COLOUR_RGB('Steel - Satin',0.627450980392157,0.627450980392157,0.627450980392157);
ENDSEC;
END-ISO-10303-21;
